<svg xmlns="http://www.w3.org/2000/svg" xmlns:xlink="http://www.w3.org/1999/xlink" xmlns:lucid="lucid" width="2431" height="1374"><g transform="translate(-352 738)" lucid:page-tab-id="OkEfoAQ.jTMj"><path d="M-1696-2592h5152v3952h-5152z" fill="#fff"/><path d="M923-694c0-5.52 4.48-10 10-10h1800c5.52 0 10 4.48 10 10V586c0 5.52-4.48 10-10 10H933c-5.52 0-10-4.48-10-10z" stroke="#000" stroke-width="2" fill="#fff"/><path d="M1182.96-54c0-5.52 4.48-10 10-10h560c5.53 0 10 4.48 10 10v540.56c0 5.52-4.47 10-10 10h-560c-5.52 0-10-4.48-10-10z" stroke="#000" stroke-width="2" fill="#fff"/><path d="M1680.46 481.5c0-5.52 4.48-10 10-10h40c5.53 0 10 4.48 10 10v20c0 5.52-4.47 10-10 10h-40c-5.52 0-10-4.48-10-10z" stroke="#fff" stroke-width="2" fill="#fff"/><path d="M1740.06 492.5c.6-.68.48-1.8 0-2.52l-2.88-3.32-12.94-14.64c-.6-.68-1.44-.68-2.04 0-.6.68-.72 1.8 0 2.52l13.54 15.44c.6.72.6 1.84 0 2.52l-13.77 16.04c-.6.68-.6 1.8 0 2.48.6.72 1.55.56 2.03 0l12.82-14.76.12-.12 3.12-3.64zM1680.86 492.5c-.6-.68-.47-1.8 0-2.52l2.88-3.32 12.94-14.64c.6-.68 1.44-.68 2.05 0 .58.68.72 1.8 0 2.52l-13.3 15.44c-.6.72-.6 1.84 0 2.52l13.52 16.04c.6.68.6 1.8 0 2.48-.58.72-1.55.56-2.02 0l-13.06-14.6-.13-.16-2.88-3.76z" stroke="#000" stroke-opacity="0" fill="#3999c6"/><path d="M1702.32 491.25c0 2.64-1.92 4.6-3.96 4.6-2.03 0-4.2-2.23-4.2-4.6 0-2.38 1.7-4.6 4.2-4.6 2.4 0 3.96 2.22 3.96 4.6zM1714.42 491.25c0 2.64-1.92 4.6-3.96 4.6-2.03 0-4.2-2.23-4.2-4.6 0-2.38 1.92-4.6 4.2-4.6 2.28 0 3.96 2.22 3.96 4.6zM1726.64 491.25c0 2.53-1.77 4.6-3.96 4.6-2.18 0-3.95-2.07-3.95-4.6 0-2.54 1.77-4.6 3.95-4.6 2.2 0 3.96 2.06 3.96 4.6z" stroke="#000" stroke-opacity="0" fill="#7fba00"/><path d="M1697.33 472.4h26.18l16.28 18.9-16.92 19.7h-25.3l-16.73-19.48z" stroke="#000" stroke-opacity="0" stroke-width="0" fill-opacity="0"/><path d="M1881.96-59.06c0-5.52 4.48-10 10-10h500c5.53 0 10 4.48 10 10V481.5c0 5.52-4.47 10-10 10h-500c-5.52 0-10-4.48-10-10z" stroke="#000" stroke-width="2" fill="#fff"/><path d="M2321.96 480.5c0-5.52 4.48-10 10-10h40c5.53 0 10 4.48 10 10v20c0 5.52-4.47 10-10 10h-40c-5.52 0-10-4.48-10-10z" stroke="#fff" stroke-width="2" fill="#fff"/><path d="M2381.56 491.5c.6-.68.48-1.8 0-2.52l-2.88-3.32-12.94-14.64c-.6-.68-1.44-.68-2.04 0-.6.68-.72 1.8 0 2.52l13.54 15.44c.6.72.6 1.84 0 2.52l-13.77 16.04c-.6.68-.6 1.8 0 2.48.6.72 1.55.56 2.03 0l12.82-14.76.12-.12 3.12-3.64zM2322.36 491.5c-.6-.68-.47-1.8 0-2.52l2.88-3.32 12.94-14.64c.6-.68 1.44-.68 2.05 0 .58.68.72 1.8 0 2.52l-13.3 15.44c-.6.72-.6 1.84 0 2.52l13.52 16.04c.6.68.6 1.8 0 2.48-.58.72-1.55.56-2.02 0l-13.06-14.6-.13-.16-2.88-3.76z" stroke="#000" stroke-opacity="0" fill="#3999c6"/><path d="M2343.82 490.25c0 2.64-1.92 4.6-3.96 4.6-2.03 0-4.2-2.23-4.2-4.6 0-2.38 1.7-4.6 4.2-4.6 2.4 0 3.96 2.22 3.96 4.6zM2355.92 490.25c0 2.64-1.92 4.6-3.96 4.6-2.03 0-4.2-2.23-4.2-4.6 0-2.38 1.92-4.6 4.2-4.6 2.28 0 3.96 2.22 3.96 4.6zM2368.14 490.25c0 2.53-1.77 4.6-3.96 4.6-2.18 0-3.95-2.07-3.95-4.6 0-2.54 1.77-4.6 3.95-4.6 2.2 0 3.96 2.06 3.96 4.6z" stroke="#000" stroke-opacity="0" fill="#7fba00"/><path d="M2338.83 471.4H2365l16.28 18.9-16.92 19.7h-25.3l-16.73-19.48z" stroke="#000" stroke-opacity="0" stroke-width="0" fill-opacity="0"/><path d="M1322.96 7.17c0-5.52 4.48-10 10-10h160c5.53 0 10 4.48 10 10V266c0 5.52-4.47 10-10 10h-160c-5.52 0-10-4.48-10-10z" fill="#fff"/><path d="M1354.3-2.83h21.33m10.67 0h21.33m10.67 0h21.33m10.67 0h21.33m10.67 0h10.66l3.16.5 2.75 1.43 2.16 2.17 1.42 2.74.5 3.17v9.6m0 9.57v19.18m0 9.58v19.18m0 9.58v19.17m0 9.6v19.16m0 9.58v19.17m0 9.6v19.16m0 9.6v19.17m0 9.6v19.16m0 9.58v9.6l-.5 3.16-1.42 2.75-2.16 2.17-2.75 1.42-3.16.5h-10.66m-10.67 0h-21.33m-10.67 0h-21.33m-10.67 0h-21.33m-10.67 0h-21.33m-10.67 0h-10.67l-3.16-.5-2.74-1.43-2.17-2.16-1.43-2.74-.5-3.16v-9.6m0-9.57v-19.17m0-9.6V198.9m0-9.6v-19.16m0-9.6V141.4m0-9.6v-19.16m0-9.6V83.87m0-9.58V55.1m0-9.58V26.34m0-9.58v-9.6l.5-3.15 1.42-2.73 2.16-2.17 2.74-1.42 3.16-.5h10.67" stroke="#000" stroke-width="2" fill="none"/><path d="M1921.96 247.68c0-5.52 4.48-10 10-10h160c5.53 0 10 4.48 10 10V379.5c0 5.52-4.47 10-10 10h-160c-5.52 0-10-4.48-10-10z" fill="#fff"/><path d="M1953.3 237.68h21.33m10.67 0h21.33m10.67 0h21.33m10.67 0h21.33m10.67 0h10.66l3.16.5 2.75 1.43 2.16 2.18 1.42 2.74.5 3.16v11m0 10.97v21.97m0 11v21.95m0 11v21.96m0 10.98v11l-.5 3.16-1.42 2.74-2.16 2.17-2.75 1.42-3.16.5h-10.66m-10.67 0h-21.33m-10.67 0h-21.33m-10.67 0h-21.33m-10.67 0h-21.33m-10.67 0h-10.67l-3.16-.5-2.74-1.43-2.17-2.17-1.43-2.74-.5-3.16v-11m0-10.97v-21.97m0-11v-21.95m0-10.98v-21.97m0-10.98v-11l.5-3.15 1.42-2.74 2.16-2.17 2.74-1.4 3.16-.52h10.67" stroke="#000" stroke-width="2" fill="none"/><path d="M1139.46-69.06h240v60h-240z" stroke="#000" stroke-opacity="0" stroke-width="2" fill="#fff" fill-opacity="0"/><use xlink:href="#a" transform="matrix(1,0,0,1,1144.4624999999999,-64.05718475067977) translate(81.94228395061728 28.677777777777777)"/><path d="M1881.96 165.32h240v60h-240z" stroke="#000" stroke-opacity="0" stroke-width="2" fill="#fff" fill-opacity="0"/><use xlink:href="#b" transform="matrix(1,0,0,1,1886.9624999999999,170.31567301169423) translate(85.025 30.025)"/><path d="M1923.46 35.32c0-5.53 4.48-10 10-10h160c5.53 0 10 4.47 10 10v131.8c0 5.53-4.47 10-10 10h-160c-5.52 0-10-4.47-10-10z" fill="#fff"/><path d="M1954.8 25.32h21.33m10.67 0h21.33m10.67 0h21.33m10.67 0h21.33m10.67 0h10.66l3.16.5 2.75 1.43 2.16 2.16 1.42 2.75.5 3.17V46.3m0 10.98v21.97m0 11v21.96m0 11v21.96m0 10.98v11l-.5 3.15-1.42 2.73-2.16 2.17-2.75 1.42-3.16.5h-10.66m-10.67 0h-21.33m-10.67 0h-21.33m-10.67 0h-21.33m-10.67 0h-21.33m-10.67 0h-10.67l-3.16-.5-2.74-1.42-2.17-2.17-1.43-2.74-.5-3.17v-11m0-10.97V123.2m0-11V90.25m0-11V57.3m0-10.98V35.32l.5-3.17 1.42-2.74 2.16-2.15 2.74-1.42 3.16-.5h10.67" stroke="#000" stroke-width="2" fill="none"/><path d="M1891.96 389.5h240v60h-240z" stroke="#000" stroke-opacity="0" stroke-width="2" fill="#fff" fill-opacity="0"/><use xlink:href="#c" transform="matrix(1,0,0,1,1896.9624999999999,394.49579621423754) translate(80.525 30.025)"/><path d="M1522.96 396h240v60h-240z" stroke="#000" stroke-opacity="0" stroke-width="2" fill="#fff" fill-opacity="0"/><use xlink:href="#d" transform="matrix(1,0,0,1,1527.9624999999999,401) translate(5.849999999999999 17.525)"/><use xlink:href="#e" transform="matrix(1,0,0,1,1527.9624999999999,401) translate(17.999999999999996 17.525)"/><use xlink:href="#f" transform="matrix(1,0,0,1,1527.9624999999999,401) translate(62.94999999999999 17.525)"/><use xlink:href="#g" transform="matrix(1,0,0,1,1527.9624999999999,401) translate(105.84999999999998 17.525)"/><use xlink:href="#h" transform="matrix(1,0,0,1,1527.9624999999999,401) translate(134.84999999999997 17.525)"/><use xlink:href="#i" transform="matrix(1,0,0,1,1527.9624999999999,401) translate(154.84999999999997 17.525)"/><use xlink:href="#j" transform="matrix(1,0,0,1,1527.9624999999999,401) translate(17.999999999999996 39.125)"/><use xlink:href="#k" transform="matrix(1,0,0,1,1527.9624999999999,401) translate(75.89999999999998 39.125)"/><use xlink:href="#l" transform="matrix(1,0,0,1,1527.9624999999999,401) translate(94.84999999999997 39.125)"/><use xlink:href="#m" transform="matrix(1,0,0,1,1527.9624999999999,401) translate(157.79999999999995 39.125)"/><path d="M1749.96 181.46c-3.87-3.95-3.8-10.28.15-14.14l17.82-17.44c2.96-2.9 5.32-1.9 5.28 2.25-.05 4.14 3.28 7.53 7.42 7.58l85 .9c4.14.05 7.54-3.27 7.58-7.42.05-4.14 2.43-5.1 5.33-2.14l17.44 17.8c3.86 3.96 3.8 10.3-.15 14.16l-17.8 17.43c-2.97 2.9-5.34 1.9-5.3-2.25.05-4.14-3.27-7.53-7.4-7.58l-85.02-.9c-4.14-.04-7.53 3.28-7.58 7.43-.04 4.14-2.42 5.1-5.32 2.14z" stroke="#000" stroke-width="2" fill="#fff"/><use xlink:href="#n" transform="matrix(0.9999443183975891,0.010552729712306537,-0.010552729712306537,0.9999443183975891,1748.2260398347955,149.36562491455356) translate(44.05499999999999 26.9)"/><path d="M2114.86 138.7c-14.4-1.44-16.9-7.2-16.9-7.2s-3.26 7.44-24 7.44v30.78c0 3.72 2.2 7.26 5.38 10.26 7.1 6.84 18.62 11.52 18.62 11.52s24-9.6 24-21.78v-30.78c-2.64 0-5-.12-7.1-.24z" stroke="#000" stroke-opacity="0" stroke-width="3" fill="#0072c6"/><path d="M2104 151.32l10.88-12.6c-14.44-1.45-16.9-7.22-16.9-7.22s-3.3 7.46-24.02 7.46v30.77c0 3.73 2.2 7.22 5.36 10.23l8.15-9.4 16.53-19.24z" stroke="#000" stroke-opacity="0" stroke-width="3" fill="#3999c6" fill-opacity=".4"/><path d="M2078.95 160.84v7.34c0 3 1.83 5.77 4.32 8.16 5.65 5.55 14.82 9.15 14.82 9.15v-24.66h-19.15z" stroke="#000" stroke-opacity="0" stroke-width="3" fill="#fff" fill-opacity=".3"/><path d="M2097.96 185.5s19.15-7.72 19.15-17.34v-7.32h-19.14v24.65zm0-47.87s-2.6 6.03-19.15 6.03v17.18h19.16v-23.2z" stroke="#000" stroke-opacity="0" stroke-width="3" fill="#fff" fill-opacity=".7"/><path d="M2111.35 143.4c-11.42-1.2-13.4-5.65-13.4-5.65v23.1h19.16v-17.2c-2.1 0-4.05-.13-5.75-.24z" stroke="#000" stroke-opacity="0" stroke-width="3" fill="#fff" fill-opacity=".3"/><path d="M2113.36 358.7c-14.4-1.44-16.9-7.2-16.9-7.2s-3.26 7.44-24 7.44v30.78c0 3.72 2.2 7.26 5.38 10.26 7.1 6.84 18.62 11.52 18.62 11.52s24-9.6 24-21.78v-30.78c-2.64 0-5-.12-7.1-.24z" stroke="#000" stroke-opacity="0" stroke-width="3" fill="#0072c6"/><path d="M2102.5 371.32l10.88-12.6c-14.44-1.45-16.9-7.22-16.9-7.22s-3.3 7.46-24.02 7.46v30.77c0 3.73 2.2 7.22 5.36 10.23l8.15-9.4 16.53-19.24z" stroke="#000" stroke-opacity="0" stroke-width="3" fill="#3999c6" fill-opacity=".4"/><path d="M2077.45 380.84v7.34c0 3 1.83 5.77 4.32 8.16 5.65 5.55 14.82 9.15 14.82 9.15v-24.66h-19.15z" stroke="#000" stroke-opacity="0" stroke-width="3" fill="#fff" fill-opacity=".3"/><path d="M2096.46 405.5s19.15-7.72 19.15-17.34v-7.32h-19.14v24.65zm0-47.87s-2.6 6.03-19.15 6.03v17.18h19.16v-23.2z" stroke="#000" stroke-opacity="0" stroke-width="3" fill="#fff" fill-opacity=".7"/><path d="M2109.85 363.4c-11.42-1.2-13.4-5.65-13.4-5.65v23.1h19.16v-17.2c-2.1 0-4.05-.13-5.75-.24z" stroke="#000" stroke-opacity="0" stroke-width="3" fill="#fff" fill-opacity=".3"/><path d="M2162.96 376h240v60h-240z" stroke="#000" stroke-opacity="0" stroke-width="2" fill="#fff" fill-opacity="0"/><use xlink:href="#d" transform="matrix(1,0,0,1,2167.9624999999996,381) translate(5.849999999999999 17.525)"/><use xlink:href="#e" transform="matrix(1,0,0,1,2167.9624999999996,381) translate(17.999999999999996 17.525)"/><use xlink:href="#f" transform="matrix(1,0,0,1,2167.9624999999996,381) translate(62.94999999999999 17.525)"/><use xlink:href="#g" transform="matrix(1,0,0,1,2167.9624999999996,381) translate(105.84999999999998 17.525)"/><use xlink:href="#h" transform="matrix(1,0,0,1,2167.9624999999996,381) translate(134.84999999999997 17.525)"/><use xlink:href="#i" transform="matrix(1,0,0,1,2167.9624999999996,381) translate(154.84999999999997 17.525)"/><use xlink:href="#j" transform="matrix(1,0,0,1,2167.9624999999996,381) translate(17.999999999999996 39.125)"/><use xlink:href="#k" transform="matrix(1,0,0,1,2167.9624999999996,381) translate(75.89999999999998 39.125)"/><use xlink:href="#l" transform="matrix(1,0,0,1,2167.9624999999996,381) translate(94.84999999999997 39.125)"/><use xlink:href="#m" transform="matrix(1,0,0,1,2167.9624999999996,381) translate(157.79999999999995 39.125)"/><path d="M1862.96-69.06h240v60h-240z" stroke="#000" stroke-opacity="0" stroke-width="2" fill="#fff" fill-opacity="0"/><use xlink:href="#o" transform="matrix(1,0,0,1,1867.9624999999999,-64.05718475067988) translate(84.72283950617285 28.677777777777777)"/><path d="M1989.28 309.12h30.16v-18.96h-30.16v18.96zm21.68-5.52l-5.68 3.12v-6.24l5.68-3.12v6.24zm-6.24-10.2l5.68 3.12-5.68 3.12-5.68-3.12 5.68-3.12zm-6.08 3.96l5.68 3.12v6.24l-5.68-3.12v-6.24z" stroke="#000" stroke-opacity="0" fill="#0078d7"/><path d="M2039.44 276h-72.96c-2 0-3.52 1.56-3.52 3.24v53.52c0 1.86 1.68 3.24 3.52 3.24h72.96c2.08 0 3.52-1.56 3.52-3.24v-53.52c0-1.68-1.52-3.24-3.52-3.24zm-36.72 49.68l-2.24 6.18v.18l-.16.18H1998.4h-.16v-.18l-2.24-6.18v-.54h1.52v.18l1.84 5.34 1.84-5.34v-.18l.16-.18h1.12v.18c.4.18.4.36.24.36zm9.76 6.36c-.24.18-.4.18-.4.18H2011.12h-.16v-5.88l-2.08 5.7v.18h-.32H2007.36v-.18l-2.16-5.7v5.88h-.4H2003.68V325.86c0-.18 0-.36.16-.36.24-.18.24-.18.4-.18h1.28c.16 0 .16 0 .4.18l.16.18c0 .18.24.18.24.36l1.6 4.08 1.68-4.08c0-.18.16-.36.16-.36 0-.18.16-.18.16-.18s.24-.18.4-.18h1.68s.16 0 .16.18c0 0 0 .18.24.18v.18l.08 6.18zm9.36-22.38c0 1.02-.96 1.68-1.84 1.68h-11.04c-1.12 4.02-.56 4.5 6.8 4.5v1.74h-23.04v-1.74c6.64 0 7.76-.48 6.8-4.5h-10.8c-1.12 0-1.84-.84-1.84-1.68v-20.04c0-1.02.88-1.92 1.84-1.92h31.2c1.12 0 1.84.9 1.84 1.92v20.04z" stroke="#000" stroke-opacity="0" fill="#0078d7"/><use xlink:href="#p" transform="matrix(1,0,0,1,1932.9624999999999,344.99999999999994) translate(51.05 14.4)"/><path d="M1882.28-654c0-5.52 4.48-10 10-10h760.68c5.53 0 10 4.48 10 10v540.56c0 5.52-4.47 10-10 10h-760.68c-5.52 0-10-4.48-10-10z" stroke="#000" stroke-width="2" fill="#fff"/><path d="M2582.96-114c0-5.52 4.48-10 10-10h40c5.53 0 10 4.48 10 10v20c0 5.52-4.47 10-10 10h-40c-5.52 0-10-4.48-10-10z" stroke="#fff" stroke-width="2" fill="#fff"/><path d="M2642.56-103c.6-.68.48-1.8 0-2.52l-2.88-3.32-12.94-14.64c-.6-.68-1.44-.68-2.04 0-.6.68-.72 1.8 0 2.52l13.54 15.44c.6.72.6 1.84 0 2.52l-13.77 16.04c-.6.68-.6 1.8 0 2.48.6.72 1.55.56 2.03 0l12.82-14.76.12-.12 3.12-3.64zM2583.36-103c-.6-.68-.47-1.8 0-2.52l2.88-3.32 12.94-14.64c.6-.68 1.44-.68 2.05 0 .58.68.72 1.8 0 2.52l-13.3 15.44c-.6.72-.6 1.84 0 2.52l13.52 16.04c.6.68.6 1.8 0 2.48-.58.72-1.55.56-2.02 0l-13.06-14.6-.13-.16-2.88-3.76z" stroke="#000" stroke-opacity="0" fill="#3999c6"/><path d="M2604.82-104.25c0 2.64-1.92 4.6-3.96 4.6-2.03 0-4.2-2.23-4.2-4.6 0-2.38 1.7-4.6 4.2-4.6 2.4 0 3.96 2.22 3.96 4.6zM2616.92-104.25c0 2.64-1.92 4.6-3.96 4.6-2.03 0-4.2-2.23-4.2-4.6 0-2.38 1.92-4.6 4.2-4.6 2.28 0 3.96 2.22 3.96 4.6zM2629.14-104.25c0 2.53-1.77 4.6-3.96 4.6-2.18 0-3.95-2.07-3.95-4.6 0-2.54 1.77-4.6 3.95-4.6 2.2 0 3.96 2.06 3.96 4.6z" stroke="#000" stroke-opacity="0" fill="#7fba00"/><path d="M2599.83-123.1H2626l16.28 18.9-16.92 19.7h-25.3l-16.73-19.48z" stroke="#000" stroke-opacity="0" stroke-width="0" fill-opacity="0"/><path d="M2362.96-444h240v60h-240z" stroke="#000" stroke-opacity="0" stroke-width="2" fill="#fff" fill-opacity="0"/><use xlink:href="#q" transform="matrix(1,0,0,1,2367.9624999999996,-438.99999999999966) translate(77.525 30.025)"/><path d="M2404.46-574c0-5.52 4.48-10 10-10h160c5.53 0 10 4.48 10 10v360c0 5.52-4.47 10-10 10h-160c-5.52 0-10-4.48-10-10z" fill="#fff"/><path d="M2435.8-584h21.33m10.67 0h21.33m10.67 0h21.33m10.67 0h21.33m10.67 0h10.66l3.16.5 2.75 1.43 2.16 2.16 1.42 2.74.5 3.16v10m0 10v20m0 10v20m0 10v20m0 10v20m0 10v20m0 10v20m0 10v20m0 10v20m0 10v20m0 10v20m0 10v20m0 10v10l-.5 3.16-1.42 2.75-2.16 2.17-2.75 1.42-3.16.5h-10.66m-10.67 0h-21.33m-10.67 0h-21.33m-10.67 0h-21.33m-10.67 0h-21.33m-10.67 0h-10.67l-3.16-.5-2.74-1.43-2.17-2.16-1.43-2.74-.5-3.16v-10m0-10v-20m0-10v-20m0-10v-20m0-10v-20m0-10v-20m0-10v-20m0-10v-20m0-10v-20m0-10v-20m0-10v-20m0-10v-20m0-10v-10l.5-3.16 1.42-2.75 2.16-2.17 2.74-1.42 3.16-.5h10.67" stroke="#000" stroke-width="2" fill="none"/><path d="M1702.62-56.6c-5.33 1.44-10.82-1.72-12.25-7.06l-6.47-24.07c-1.08-4 .96-5.57 4.55-3.5 3.6 2.07 8.17.84 10.24-2.75l172.86-299.96c2.07-3.6.83-8.18-2.75-10.24-3.58-2.07-3.25-4.62.75-5.7l24.07-6.47c5.34-1.43 10.82 1.73 12.25 7.06l6.48 24.1c1.07 4-.97 5.55-4.56 3.48-3.6-2.06-8.18-.83-10.25 2.76L1724.68-79c-2.07 3.6-.83 8.17 2.76 10.24 3.6 2.07 3.25 4.62-.75 5.7z" stroke="#000" stroke-width="2" fill="#fff"/><use xlink:href="#n" transform="matrix(0.4993174314920137,-0.8664191264095098,0.8664191264095098,0.4993174314920137,1673.798608997222,-70.8150314193474) translate(174.55499999999998 26.9)"/><path d="M2603.86-236.8c-14.4-1.44-16.9-7.2-16.9-7.2s-3.26 7.44-24 7.44v30.78c0 3.72 2.2 7.26 5.38 10.26 7.1 6.84 18.62 11.52 18.62 11.52s24-9.6 24-21.78v-30.78c-2.64 0-5-.12-7.1-.24z" stroke="#000" stroke-opacity="0" stroke-width="3" fill="#0072c6"/><path d="M2593-224.18l10.88-12.6c-14.44-1.45-16.9-7.22-16.9-7.22s-3.3 7.46-24.02 7.46v30.77c0 3.73 2.2 7.22 5.36 10.23l8.15-9.4 16.53-19.24z" stroke="#000" stroke-opacity="0" stroke-width="3" fill="#3999c6" fill-opacity=".4"/><path d="M2567.95-214.66v7.34c0 3 1.83 5.77 4.32 8.16 5.65 5.55 14.82 9.15 14.82 9.15v-24.66h-19.15z" stroke="#000" stroke-opacity="0" stroke-width="3" fill="#fff" fill-opacity=".3"/><path d="M2586.96-190s19.15-7.72 19.15-17.34v-7.32h-19.14V-190zm0-47.87s-2.6 6.03-19.15 6.03v17.18h19.16v-23.2z" stroke="#000" stroke-opacity="0" stroke-width="3" fill="#fff" fill-opacity=".7"/><path d="M2600.35-232.1c-11.42-1.2-13.4-5.65-13.4-5.65v23.1h19.16v-17.2c-2.1 0-4.05-.13-5.75-.24z" stroke="#000" stroke-opacity="0" stroke-width="3" fill="#fff" fill-opacity=".3"/><path d="M2402.96-184h240v60h-240z" stroke="#000" stroke-opacity="0" stroke-width="2" fill="#fff" fill-opacity="0"/><use xlink:href="#d" transform="matrix(1,0,0,1,2407.9624999999996,-179) translate(5.849999999999999 17.525)"/><use xlink:href="#e" transform="matrix(1,0,0,1,2407.9624999999996,-179) translate(17.999999999999996 17.525)"/><use xlink:href="#f" transform="matrix(1,0,0,1,2407.9624999999996,-179) translate(62.94999999999999 17.525)"/><use xlink:href="#g" transform="matrix(1,0,0,1,2407.9624999999996,-179) translate(105.84999999999998 17.525)"/><use xlink:href="#h" transform="matrix(1,0,0,1,2407.9624999999996,-179) translate(134.84999999999997 17.525)"/><use xlink:href="#i" transform="matrix(1,0,0,1,2407.9624999999996,-179) translate(154.84999999999997 17.525)"/><use xlink:href="#j" transform="matrix(1,0,0,1,2407.9624999999996,-179) translate(17.999999999999996 39.125)"/><use xlink:href="#k" transform="matrix(1,0,0,1,2407.9624999999996,-179) translate(75.89999999999998 39.125)"/><use xlink:href="#l" transform="matrix(1,0,0,1,2407.9624999999996,-179) translate(94.84999999999997 39.125)"/><use xlink:href="#m" transform="matrix(1,0,0,1,2407.9624999999996,-179) translate(157.79999999999995 39.125)"/><path d="M1846.28-664h240v60h-240z" stroke="#000" stroke-opacity="0" stroke-width="2" fill="#fff" fill-opacity="0"/><use xlink:href="#o" transform="matrix(1,0,0,1,1851.279081891369,-659) translate(84.72283950617285 28.677777777777777)"/><path d="M809.76 362.8c-2.16 0-4.08.5-5.76 1.18l-28.8-28.83c.72-1.63 1.2-3.55 1.2-5.62 0-7.62-6.12-13.53-13.44-13.53-7.32 0-13.44 6.2-13.44 13.53 0 2.07.48 4 1.2 5.62l-28.68 29.05c-1.68-.74-3.48-1.18-5.64-1.18-7.56 0-13.44 6.13-13.44 13.45 0 7.32 6.12 13.46 13.44 13.46 5.88 0 10.68-3.77 12.6-8.72h67.92c1.92 4.96 6.84 8.73 12.6 8.73 7.56 0 13.44-6.14 13.44-13.46 0-7.32-5.88-13.67-13.2-13.67zm-93.6 17.96c-2.4 0-4.44-1.92-4.44-4.5 0-2.37 1.8-4.44 4.44-4.44 2.4 0 4.44 1.84 4.44 4.43 0 2.6-1.8 4.5-4.44 4.5zm46.8-55.52c2.4 0 4.44 1.85 4.44 4.44 0 2.36-1.8 4.5-4.44 4.5-2.4 0-4.44-1.84-4.44-4.5.12-2.6 2.04-4.44 4.44-4.44zm33.96 46.5H729c-.24-.44-.24-.66-.6-.96l28.92-28.98c1.68.67 3.48 1.18 5.64 1.18 2.04 0 3.96-.5 5.64-1.18l28.8 28.83c-.24.15-.48.67-.48 1.1zm12.84 8.73c-2.4 0-4.56-1.85-4.56-4.44 0-2.37 1.92-4.5 4.56-4.5 2.28 0 4.44 1.9 4.44 4.5-.24 2.6-2.16 4.44-4.44 4.44z" stroke="#000" stroke-opacity="0" fill="#0078d7"/><use xlink:href="#r" transform="matrix(1,0,0,1,672.9624999999999,398.9288811795317) translate(33.55 14.4)"/><path d="M549.93 317.8c0-.12 0-.12-.07-.12 0-.12-.07-.24-.07-.24-.64-1.44-2.32-1.44-2.32-1.44h-64.96s-1.68 0-2.3 1.44c0 0-.08.12-.08.24l-.07.12c-.07.24-.07.48-.07.72v114.84c0 2.4 2.52 2.52 2.52 2.52h64.96s2.52-.12 2.52-2.52V318.52c0-.36-.07-.6-.07-.72z" stroke="#000" stroke-opacity="0" stroke-width="3" fill="#0072c6"/><path d="M490 326h10v17.48h-10zm20 0h10v17.48h-10zm20 0h10v17.48h-10zm-40 27.5h10v17.48h-10zm20 0h10v17.48h-10zm20 0h10v17.48h-10zm-40 27.38h10v17.5h-10zm20 0h10v17.5h-10zm-2.5 32.57h15V436h-15zm22.5-32.57h10v17.5h-10z" stroke="#000" stroke-opacity="0" stroke-width="3" fill="#fff" fill-opacity=".85"/><path d="M542.5 316h-60c-.06 0-1.63 0-2.25 1.4-.06.1-.13.2-.13.27v.1c-.06.17-.12.43-.12.7v85.68L542.5 316z" stroke="#000" stroke-opacity="0" stroke-width="3" fill="#fff" fill-opacity=".2"/><use xlink:href="#s" transform="matrix(1,0,0,1,450,445) translate(9.074999999999996 14.4)"/><use xlink:href="#t" transform="matrix(1,0,0,1,450,445) translate(52.025 14.4)"/><use xlink:href="#u" transform="matrix(1,0,0,1,450,445) translate(110.92500000000001 14.4)"/><path d="M700.54 375.85H552.5" stroke="#5e5e5e" stroke-width="5" fill="none"/><path d="M702.96 376.47l.25 1.88h-2.72v-5h2.9M552.56 378.35H550v-5h2.56" fill="#5e5e5e"/><path d="M1989.28 89.12h30.16V70.16h-30.16v18.96zm21.68-5.52l-5.68 3.12v-6.24l5.68-3.12v6.24zm-6.24-10.2l5.68 3.12-5.68 3.12-5.68-3.12 5.68-3.12zm-6.08 3.96l5.68 3.12v6.24l-5.68-3.12v-6.24z" stroke="#000" stroke-opacity="0" fill="#0078d7"/><path d="M2039.44 56h-72.96c-2 0-3.52 1.56-3.52 3.24v53.52c0 1.86 1.68 3.24 3.52 3.24h72.96c2.08 0 3.52-1.56 3.52-3.24V59.24c0-1.68-1.52-3.24-3.52-3.24zm-36.72 49.68l-2.24 6.18v.18l-.16.18H1998.4h-.16v-.18l-2.24-6.18v-.54h1.52v.18l1.84 5.34 1.84-5.34v-.18l.16-.18h1.12v.18c.4.18.4.36.24.36zm9.76 6.36c-.24.18-.4.18-.4.18H2011.12h-.16v-5.88l-2.08 5.7v.18h-.32H2007.36v-.18l-2.16-5.7v5.88h-.4H2003.68V105.86c0-.18 0-.36.16-.36.24-.18.24-.18.4-.18h1.28c.16 0 .16 0 .4.18l.16.18c0 .18.24.18.24.36l1.6 4.08 1.68-4.08c0-.18.16-.36.16-.36 0-.18.16-.18.16-.18s.24-.18.4-.18h1.68s.16 0 .16.18c0 0 0 .18.24.18v.18l.08 6.18zm9.36-22.38c0 1.02-.96 1.68-1.84 1.68h-11.04c-1.12 4.02-.56 4.5 6.8 4.5v1.74h-23.04v-1.74c6.64 0 7.76-.48 6.8-4.5h-10.8c-1.12 0-1.84-.84-1.84-1.68V69.62c0-1.02.88-1.92 1.84-1.92h31.2c1.12 0 1.84.9 1.84 1.92v20.04z" stroke="#000" stroke-opacity="0" fill="#0078d7"/><use xlink:href="#v" transform="matrix(1,0,0,1,1932.9624999999999,124.99999999999996) translate(42.55 14.4)"/><use xlink:href="#w" transform="matrix(1,0,0,1,1932.9624999999999,124.99999999999996) translate(72.5 14.4)"/><path d="M960-680h317.04v49H960z" fill="#fff" fill-opacity="0"/><use xlink:href="#x" transform="matrix(1,0,0,1,965,-675) translate(107.20987654320987 25.09027777777778)"/><use xlink:href="#y" transform="matrix(1,0,0,1,965,-675) translate(188.44444444444443 25.09027777777778)"/><path d="M1322.96 306c0-5.52 4.48-10 10-10h160c5.53 0 10 4.48 10 10v160.56c0 5.52-4.47 10-10 10h-160c-5.52 0-10-4.48-10-10z" fill="#fff"/><path d="M1354.3 296h21.33m10.67 0h21.33m10.67 0h21.33m10.67 0h21.33m10.67 0h10.66l3.16.5 2.75 1.43 2.16 2.16 1.42 2.74.5 3.16v10.7m0 10.7v21.42m0 10.7v21.4m0 10.7v21.42m0 10.7v21.4m0 10.7v10.72l-.5 3.16-1.42 2.74-2.16 2.17-2.75 1.42-3.16.5h-10.66m-10.67 0h-21.33m-10.67 0h-21.33m-10.67 0h-21.33m-10.67 0h-21.33m-10.67 0h-10.67l-3.16-.5-2.74-1.42-2.17-2.17-1.43-2.74-.5-3.16v-10.7m0-10.7v-21.42m0-10.7v-21.4m0-10.7V359.5m0-10.7v-21.4m0-10.72V306l.5-3.16 1.42-2.75 2.16-2.17 2.74-1.42 3.16-.5h10.67" stroke="#000" stroke-width="2" fill="none"/><path d="M2469.97-525.25h30.16v-18.96h-30.16v18.95zm21.68-5.52l-5.68 3.12v-6.24l5.68-3.1v6.23zm-6.24-10.2l5.7 3.12-5.7 3.12-5.67-3.12 5.68-3.12zm-6.07 3.96l5.68 3.1v6.25l-5.67-3.12V-537z" stroke="#000" stroke-opacity="0" fill="#0078d7"/><path d="M2520.13-558.37h-72.96c-2 0-3.52 1.56-3.52 3.24v53.52c0 1.85 1.68 3.23 3.52 3.23h72.96c2.08 0 3.52-1.56 3.52-3.24v-53.53c0-1.68-1.52-3.24-3.52-3.24zm-36.72 49.68l-2.23 6.2v.17l-.16.18H2479.1h-.17v-.18l-2.24-6.18v-.55H2478.2v.18l1.85 5.34 1.84-5.34v-.18l.15-.18H2483.18v.18c.4.18.4.36.24.36zm9.77 6.37c-.24.18-.4.18-.4.18H2491.8h-.15v-5.88l-2.08 5.7v.18h-.31-1.21v-.18l-2.16-5.7v5.88H2485.48h-1.13V-508.5c0-.2 0-.37.16-.37.24-.18.24-.18.4-.18h1.28c.17 0 .17 0 .4.18l.17.18c0 .2.24.2.24.37l1.6 4.08 1.7-4.08c0-.18.15-.36.15-.36 0-.17.16-.17.16-.17s.25-.18.4-.18H2492.7s.15 0 .15.18c0 0 0 .18.24.18v.2l.07 6.17zm9.36-22.38c0 1-.96 1.67-1.84 1.67h-11.05c-1.12 4.02-.56 4.5 6.8 4.5v1.74h-23.03v-1.73c6.65 0 7.77-.48 6.8-4.5h-10.8c-1.1 0-1.83-.84-1.83-1.68v-20.05c0-1.02.88-1.92 1.84-1.92h31.2c1.13 0 1.85.9 1.85 1.92v20.04z" stroke="#000" stroke-opacity="0" fill="#0078d7"/><use xlink:href="#z" transform="matrix(1,0,0,1,2413.64591810863,-489.3728577623738) translate(8.299999999999997 14.4)"/><use xlink:href="#A" transform="matrix(1,0,0,1,2413.64591810863,-489.3728577623738) translate(63.8 14.4)"/><path d="M2469.28-410.88h30.16v-18.96h-30.16v18.96zm21.68-5.52l-5.68 3.12v-6.24l5.68-3.12v6.24zm-6.24-10.2l5.68 3.12-5.68 3.12-5.68-3.12 5.68-3.12zm-6.08 3.96l5.68 3.12v6.24l-5.68-3.12v-6.24z" stroke="#000" stroke-opacity="0" fill="#0078d7"/><path d="M2519.44-444h-72.96c-2 0-3.52 1.56-3.52 3.24v53.52c0 1.86 1.68 3.24 3.52 3.24h72.96c2.08 0 3.52-1.56 3.52-3.24v-53.52c0-1.68-1.52-3.24-3.52-3.24zm-36.72 49.68l-2.24 6.18v.18l-.16.18H2478.4h-.16v-.18l-2.24-6.18v-.54h1.52v.18l1.84 5.34 1.84-5.34v-.18l.16-.18h1.12v.18c.4.18.4.36.24.36zm9.76 6.36c-.24.18-.4.18-.4.18H2491.12h-.16v-5.88l-2.08 5.7v.18h-.32H2487.36v-.18l-2.16-5.7v5.88h-.4H2483.68V-394.14c0-.18 0-.36.16-.36.24-.18.24-.18.4-.18h1.28c.16 0 .16 0 .4.18l.16.18c0 .18.24.18.24.36l1.6 4.08 1.68-4.08c0-.18.16-.36.16-.36 0-.18.16-.18.16-.18s.24-.18.4-.18h1.68s.16 0 .16.18c0 0 0 .18.24.18v.18l.08 6.18zm9.36-22.38c0 1.02-.96 1.68-1.84 1.68h-11.04c-1.12 4.02-.56 4.5 6.8 4.5v1.74h-23.04v-1.74c6.64 0 7.76-.48 6.8-4.5h-10.8c-1.12 0-1.84-.84-1.84-1.68v-20.04c0-1.02.88-1.92 1.84-1.92h31.2c1.12 0 1.84.9 1.84 1.92v20.04z" stroke="#000" stroke-opacity="0" fill="#0078d7"/><use xlink:href="#z" transform="matrix(1,0,0,1,2412.9624999999996,-375.00000000000006) translate(8.299999999999997 14.4)"/><use xlink:href="#A" transform="matrix(1,0,0,1,2412.9624999999996,-375.00000000000006) translate(63.8 14.4)"/><path d="M2469.28-290.88h30.16v-18.96h-30.16v18.96zm21.68-5.52l-5.68 3.12v-6.24l5.68-3.12v6.24zm-6.24-10.2l5.68 3.12-5.68 3.12-5.68-3.12 5.68-3.12zm-6.08 3.96l5.68 3.12v6.24l-5.68-3.12v-6.24z" stroke="#000" stroke-opacity="0" fill="#0078d7"/><path d="M2519.44-324h-72.96c-2 0-3.52 1.56-3.52 3.24v53.52c0 1.86 1.68 3.24 3.52 3.24h72.96c2.08 0 3.52-1.56 3.52-3.24v-53.52c0-1.68-1.52-3.24-3.52-3.24zm-36.72 49.68l-2.24 6.18v.18l-.16.18H2478.4h-.16v-.18l-2.24-6.18v-.54h1.52v.18l1.84 5.34 1.84-5.34v-.18l.16-.18h1.12v.18c.4.18.4.36.24.36zm9.76 6.36c-.24.18-.4.18-.4.18H2491.12h-.16v-5.88l-2.08 5.7v.18h-.32H2487.36v-.18l-2.16-5.7v5.88h-.4H2483.68V-274.14c0-.18 0-.36.16-.36.24-.18.24-.18.4-.18h1.28c.16 0 .16 0 .4.18l.16.18c0 .18.24.18.24.36l1.6 4.08 1.68-4.08c0-.18.16-.36.16-.36 0-.18.16-.18.16-.18s.24-.18.4-.18h1.68s.16 0 .16.18c0 0 0 .18.24.18v.18l.08 6.18zm9.36-22.38c0 1.02-.96 1.68-1.84 1.68h-11.04c-1.12 4.02-.56 4.5 6.8 4.5v1.74h-23.04v-1.74c6.64 0 7.76-.48 6.8-4.5h-10.8c-1.12 0-1.84-.84-1.84-1.68v-20.04c0-1.02.88-1.92 1.84-1.92h31.2c1.12 0 1.84.9 1.84 1.92v20.04z" stroke="#000" stroke-opacity="0" fill="#0078d7"/><use xlink:href="#z" transform="matrix(1,0,0,1,2412.9624999999996,-255.00000000000006) translate(8.299999999999997 14.4)"/><use xlink:href="#A" transform="matrix(1,0,0,1,2412.9624999999996,-255.00000000000006) translate(63.8 14.4)"/><path d="M2022.96-444h240v60h-240z" stroke="#000" stroke-opacity="0" stroke-width="2" fill="#fff" fill-opacity="0"/><use xlink:href="#q" transform="matrix(1,0,0,1,2027.9624999999999,-438.99999999999966) translate(77.525 30.025)"/><path d="M2062.96-574c0-5.52 4.48-10 10-10h160c5.53 0 10 4.48 10 10v360c0 5.52-4.47 10-10 10h-160c-5.52 0-10-4.48-10-10z" fill="#fff"/><path d="M2094.3-584h21.33m10.67 0h21.33m10.67 0h21.33m10.67 0h21.33m10.67 0h10.66l3.16.5 2.75 1.43 2.16 2.16 1.42 2.74.5 3.16v10m0 10v20m0 10v20m0 10v20m0 10v20m0 10v20m0 10v20m0 10v20m0 10v20m0 10v20m0 10v20m0 10v20m0 10v10l-.5 3.16-1.42 2.75-2.16 2.17-2.75 1.42-3.16.5h-10.66m-10.67 0h-21.33m-10.67 0h-21.33m-10.67 0h-21.33m-10.67 0h-21.33m-10.67 0h-10.67l-3.16-.5-2.74-1.43-2.17-2.16-1.43-2.74-.5-3.16v-10m0-10v-20m0-10v-20m0-10v-20m0-10v-20m0-10v-20m0-10v-20m0-10v-20m0-10v-20m0-10v-20m0-10v-20m0-10v-20m0-10v-10l.5-3.16 1.42-2.75 2.16-2.17 2.74-1.42 3.16-.5h10.67" stroke="#000" stroke-width="2" fill="none"/><path d="M2263.86-236.8c-14.4-1.44-16.9-7.2-16.9-7.2s-3.26 7.44-24 7.44v30.78c0 3.72 2.2 7.26 5.38 10.26 7.1 6.84 18.62 11.52 18.62 11.52s24-9.6 24-21.78v-30.78c-2.64 0-5-.12-7.1-.24z" stroke="#000" stroke-opacity="0" stroke-width="3" fill="#0072c6"/><path d="M2253-224.18l10.88-12.6c-14.44-1.45-16.9-7.22-16.9-7.22s-3.3 7.46-24.02 7.46v30.77c0 3.73 2.2 7.22 5.36 10.23l8.15-9.4 16.53-19.24z" stroke="#000" stroke-opacity="0" stroke-width="3" fill="#3999c6" fill-opacity=".4"/><path d="M2227.95-214.66v7.34c0 3 1.83 5.77 4.32 8.16 5.65 5.55 14.82 9.15 14.82 9.15v-24.66h-19.15z" stroke="#000" stroke-opacity="0" stroke-width="3" fill="#fff" fill-opacity=".3"/><path d="M2246.96-190s19.15-7.72 19.15-17.34v-7.32h-19.14V-190zm0-47.87s-2.6 6.03-19.15 6.03v17.18h19.16v-23.2z" stroke="#000" stroke-opacity="0" stroke-width="3" fill="#fff" fill-opacity=".7"/><path d="M2260.35-232.1c-11.42-1.2-13.4-5.65-13.4-5.65v23.1h19.16v-17.2c-2.1 0-4.05-.13-5.75-.24z" stroke="#000" stroke-opacity="0" stroke-width="3" fill="#fff" fill-opacity=".3"/><path d="M2129.97-525.25h30.16v-18.96h-30.16v18.95zm21.68-5.52l-5.68 3.12v-6.24l5.68-3.1v6.23zm-6.24-10.2l5.7 3.12-5.7 3.12-5.67-3.12 5.68-3.12zm-6.07 3.96l5.68 3.1v6.25l-5.67-3.12V-537z" stroke="#000" stroke-opacity="0" fill="#0078d7"/><path d="M2180.13-558.37h-72.96c-2 0-3.52 1.56-3.52 3.24v53.52c0 1.85 1.68 3.23 3.52 3.23h72.96c2.08 0 3.52-1.56 3.52-3.24v-53.53c0-1.68-1.52-3.24-3.52-3.24zm-36.72 49.68l-2.23 6.2v.17l-.16.18H2139.1h-.17v-.18l-2.24-6.18v-.55H2138.2v.18l1.85 5.34 1.84-5.34v-.18l.15-.18H2143.18v.18c.4.18.4.36.24.36zm9.77 6.37c-.24.18-.4.18-.4.18H2151.8h-.15v-5.88l-2.08 5.7v.18h-.31-1.21v-.18l-2.16-5.7v5.88H2145.48h-1.13V-508.5c0-.2 0-.37.16-.37.24-.18.24-.18.4-.18h1.28c.17 0 .17 0 .4.18l.17.18c0 .2.24.2.24.37l1.6 4.08 1.7-4.08c0-.18.15-.36.15-.36 0-.17.16-.17.16-.17s.25-.18.4-.18H2152.7s.15 0 .15.18c0 0 0 .18.24.18v.2l.07 6.17zm9.36-22.38c0 1-.96 1.67-1.84 1.67h-11.05c-1.12 4.02-.56 4.5 6.8 4.5v1.74h-23.03v-1.73c6.65 0 7.77-.48 6.8-4.5h-10.8c-1.1 0-1.83-.84-1.83-1.68v-20.05c0-1.02.88-1.92 1.84-1.92h31.2c1.13 0 1.85.9 1.85 1.92v20.04z" stroke="#000" stroke-opacity="0" fill="#0078d7"/><use xlink:href="#z" transform="matrix(1,0,0,1,2073.64591810863,-489.3728577623738) translate(8.299999999999997 14.4)"/><use xlink:href="#A" transform="matrix(1,0,0,1,2073.64591810863,-489.3728577623738) translate(63.8 14.4)"/><path d="M2129.28-410.88h30.16v-18.96h-30.16v18.96zm21.68-5.52l-5.68 3.12v-6.24l5.68-3.12v6.24zm-6.24-10.2l5.68 3.12-5.68 3.12-5.68-3.12 5.68-3.12zm-6.08 3.96l5.68 3.12v6.24l-5.68-3.12v-6.24z" stroke="#000" stroke-opacity="0" fill="#0078d7"/><path d="M2179.44-444h-72.96c-2 0-3.52 1.56-3.52 3.24v53.52c0 1.86 1.68 3.24 3.52 3.24h72.96c2.08 0 3.52-1.56 3.52-3.24v-53.52c0-1.68-1.52-3.24-3.52-3.24zm-36.72 49.68l-2.24 6.18v.18l-.16.18H2138.4h-.16v-.18l-2.24-6.18v-.54h1.52v.18l1.84 5.34 1.84-5.34v-.18l.16-.18h1.12v.18c.4.18.4.36.24.36zm9.76 6.36c-.24.18-.4.18-.4.18H2151.12h-.16v-5.88l-2.08 5.7v.18h-.32H2147.36v-.18l-2.16-5.7v5.88h-.4H2143.68V-394.14c0-.18 0-.36.16-.36.24-.18.24-.18.4-.18h1.28c.16 0 .16 0 .4.18l.16.18c0 .18.24.18.24.36l1.6 4.08 1.68-4.08c0-.18.16-.36.16-.36 0-.18.16-.18.16-.18s.24-.18.4-.18h1.68s.16 0 .16.18c0 0 0 .18.24.18v.18l.08 6.18zm9.36-22.38c0 1.02-.96 1.68-1.84 1.68h-11.04c-1.12 4.02-.56 4.5 6.8 4.5v1.74h-23.04v-1.74c6.64 0 7.76-.48 6.8-4.5h-10.8c-1.12 0-1.84-.84-1.84-1.68v-20.04c0-1.02.88-1.92 1.84-1.92h31.2c1.12 0 1.84.9 1.84 1.92v20.04z" stroke="#000" stroke-opacity="0" fill="#0078d7"/><use xlink:href="#z" transform="matrix(1,0,0,1,2072.9624999999996,-375.00000000000006) translate(8.299999999999997 14.4)"/><use xlink:href="#A" transform="matrix(1,0,0,1,2072.9624999999996,-375.00000000000006) translate(63.8 14.4)"/><path d="M2129.28-290.88h30.16v-18.96h-30.16v18.96zm21.68-5.52l-5.68 3.12v-6.24l5.68-3.12v6.24zm-6.24-10.2l5.68 3.12-5.68 3.12-5.68-3.12 5.68-3.12zm-6.08 3.96l5.68 3.12v6.24l-5.68-3.12v-6.24z" stroke="#000" stroke-opacity="0" fill="#0078d7"/><path d="M2179.44-324h-72.96c-2 0-3.52 1.56-3.52 3.24v53.52c0 1.86 1.68 3.24 3.52 3.24h72.96c2.08 0 3.52-1.56 3.52-3.24v-53.52c0-1.68-1.52-3.24-3.52-3.24zm-36.72 49.68l-2.24 6.18v.18l-.16.18H2138.4h-.16v-.18l-2.24-6.18v-.54h1.52v.18l1.84 5.34 1.84-5.34v-.18l.16-.18h1.12v.18c.4.18.4.36.24.36zm9.76 6.36c-.24.18-.4.18-.4.18H2151.12h-.16v-5.88l-2.08 5.7v.18h-.32H2147.36v-.18l-2.16-5.7v5.88h-.4H2143.68V-274.14c0-.18 0-.36.16-.36.24-.18.24-.18.4-.18h1.28c.16 0 .16 0 .4.18l.16.18c0 .18.24.18.24.36l1.6 4.08 1.68-4.08c0-.18.16-.36.16-.36 0-.18.16-.18.16-.18s.24-.18.4-.18h1.68s.16 0 .16.18c0 0 0 .18.24.18v.18l.08 6.18zm9.36-22.38c0 1.02-.96 1.68-1.84 1.68h-11.04c-1.12 4.02-.56 4.5 6.8 4.5v1.74h-23.04v-1.74c6.64 0 7.76-.48 6.8-4.5h-10.8c-1.12 0-1.84-.84-1.84-1.68v-20.04c0-1.02.88-1.92 1.84-1.92h31.2c1.12 0 1.84.9 1.84 1.92v20.04z" stroke="#000" stroke-opacity="0" fill="#0078d7"/><use xlink:href="#z" transform="matrix(1,0,0,1,2072.9624999999996,-255.00000000000006) translate(8.299999999999997 14.4)"/><use xlink:href="#A" transform="matrix(1,0,0,1,2072.9624999999996,-255.00000000000006) translate(63.8 14.4)"/><path d="M2302.96-364c-2 0-3.84-.8-5.2-2.16l-32.64-32.64c-1.36-1.36-2.16-3.28-2.16-5.2 0-1.92.8-3.84 2.16-5.2l32.64-32.64c1.36-1.36 3.2-2.16 5.2-2.16s3.84.8 5.2 2.16l32.64 32.64c1.36 1.36 2.16 3.2 2.16 5.2s-.8 3.84-2.16 5.2l-32.64 32.64c-1.36 1.36-3.2 2.16-5.2 2.16" stroke="#000" stroke-opacity="0" fill="#7fba00"/><path d="M2335.94-404.5l-10.55-10.62v7.44h-11.3c-1.05-3.88-4.08-6.92-7.9-8.02v-10.67h7.32l-10.56-10.6-10.55 10.6h7.33v10.67c-3.83 1.1-6.86 4.14-7.92 8.02h-11.26v-7.38l-10.56 10.55 10.56 10.6v-7.5h11.27c1.07 3.87 4.1 6.9 7.93 8v7.45c-1.58 1.16-4.02 3.62-4.02 6.46 0 3.96 3.24 7.2 7.26 7.2 3.96 0 7.2-3.24 7.2-7.2 0-2.83-2.38-5.22-3.97-6.45v-7.44c3.82-1.1 6.85-4.13 7.9-7.94h11.3v7.37l10.54-10.54z" stroke="#000" stroke-opacity="0" fill="#fff"/><path d="M2302.96-412.96c-4.64 0-8.4 3.77-8.4 8.42 0 4.64 3.76 8.4 8.4 8.4 4.65 0 8.42-3.76 8.42-8.4 0-4.65-3.77-8.42-8.42-8.42z" stroke="#000" stroke-opacity="0" fill="#59b4d9"/><path d="M2308.2-441.83c-1.44-1.4-3.26-2.17-5.26-2.17-1.93 0-3.82.76-5.2 2.17l-32.62 32.6c-1.38 1.4-2.16 3.3-2.16 5.23 0 1.97.78 3.82 2.16 5.22l18.5 18.47 34.72-51.4-10.14-10.13z" stroke="#000" stroke-opacity="0" fill="#fff" fill-opacity=".15"/><use xlink:href="#B" transform="matrix(1,0,0,1,2232.9624999999996,-355) translate(26.549999999999997 14.4)"/><use xlink:href="#C" transform="matrix(1,0,0,1,2232.9624999999996,-355) translate(91.45 14.4)"/><path d="M1182.96 156c-2 0-3.84-.8-5.2-2.16l-32.64-32.64c-1.36-1.36-2.16-3.28-2.16-5.2 0-1.92.8-3.84 2.16-5.2l32.64-32.64c1.36-1.36 3.2-2.16 5.2-2.16s3.84.8 5.2 2.16l32.64 32.64c1.36 1.36 2.16 3.2 2.16 5.2s-.8 3.84-2.16 5.2l-32.64 32.64c-1.36 1.36-3.2 2.16-5.2 2.16" stroke="#000" stroke-opacity="0" fill="#7fba00"/><path d="M1215.94 115.5l-10.55-10.62v7.44h-11.3c-1.05-3.88-4.08-6.92-7.9-8.02V93.63h7.32l-10.56-10.6-10.55 10.6h7.33v10.67c-3.83 1.1-6.86 4.14-7.92 8.02h-11.26v-7.38l-10.56 10.55 10.56 10.6v-7.5h11.27c1.07 3.87 4.1 6.9 7.93 8v7.45c-1.58 1.16-4.02 3.62-4.02 6.46 0 3.96 3.24 7.2 7.26 7.2 3.96 0 7.2-3.24 7.2-7.2 0-2.83-2.38-5.22-3.97-6.45v-7.44c3.82-1.1 6.85-4.13 7.9-7.94h11.3v7.37l10.54-10.54z" stroke="#000" stroke-opacity="0" fill="#fff"/><path d="M1182.96 107.04c-4.64 0-8.4 3.77-8.4 8.42 0 4.64 3.76 8.4 8.4 8.4 4.65 0 8.42-3.76 8.42-8.4 0-4.65-3.77-8.42-8.42-8.42z" stroke="#000" stroke-opacity="0" fill="#59b4d9"/><path d="M1188.2 78.17c-1.44-1.4-3.26-2.17-5.26-2.17-1.93 0-3.82.76-5.2 2.17l-32.62 32.6c-1.38 1.4-2.16 3.3-2.16 5.23 0 1.97.78 3.82 2.16 5.22l18.5 18.47 34.72-51.4-10.14-10.13z" stroke="#000" stroke-opacity="0" fill="#fff" fill-opacity=".15"/><use xlink:href="#D" transform="matrix(1,0,0,1,1112.9624999999999,165) translate(23.549999999999997 14.4)"/><use xlink:href="#C" transform="matrix(1,0,0,1,1112.9624999999999,165) translate(94.45 14.4)"/><path d="M1602.96 156c-2 0-3.84-.8-5.2-2.16l-32.64-32.64c-1.36-1.36-2.16-3.28-2.16-5.2 0-1.92.8-3.84 2.16-5.2l32.64-32.64c1.36-1.36 3.2-2.16 5.2-2.16s3.84.8 5.2 2.16l32.64 32.64c1.36 1.36 2.16 3.2 2.16 5.2s-.8 3.84-2.16 5.2l-32.64 32.64c-1.36 1.36-3.2 2.16-5.2 2.16" stroke="#000" stroke-opacity="0" fill="#7fba00"/><path d="M1635.94 115.5l-10.55-10.62v7.44h-11.3c-1.05-3.88-4.08-6.92-7.9-8.02V93.63h7.32l-10.56-10.6-10.55 10.6h7.33v10.67c-3.83 1.1-6.86 4.14-7.92 8.02h-11.26v-7.38l-10.56 10.55 10.56 10.6v-7.5h11.27c1.07 3.87 4.1 6.9 7.93 8v7.45c-1.58 1.16-4.02 3.62-4.02 6.46 0 3.96 3.24 7.2 7.26 7.2 3.96 0 7.2-3.24 7.2-7.2 0-2.83-2.38-5.22-3.97-6.45v-7.44c3.82-1.1 6.85-4.13 7.9-7.94h11.3v7.37l10.54-10.54z" stroke="#000" stroke-opacity="0" fill="#fff"/><path d="M1602.96 107.04c-4.64 0-8.4 3.77-8.4 8.42 0 4.64 3.76 8.4 8.4 8.4 4.65 0 8.42-3.76 8.42-8.4 0-4.65-3.77-8.42-8.42-8.42z" stroke="#000" stroke-opacity="0" fill="#59b4d9"/><path d="M1608.2 78.17c-1.44-1.4-3.26-2.17-5.26-2.17-1.93 0-3.82.76-5.2 2.17l-32.62 32.6c-1.38 1.4-2.16 3.3-2.16 5.23 0 1.97.78 3.82 2.16 5.22l18.5 18.47 34.72-51.4-10.14-10.13z" stroke="#000" stroke-opacity="0" fill="#fff" fill-opacity=".15"/><use xlink:href="#B" transform="matrix(1,0,0,1,1532.9624999999999,165) translate(26.549999999999997 14.4)"/><use xlink:href="#C" transform="matrix(1,0,0,1,1532.9624999999999,165) translate(91.45 14.4)"/><path d="M1401.28 69.12h30.16V50.16h-30.16v18.96zm21.68-5.52l-5.68 3.12v-6.24l5.68-3.12v6.24zm-6.24-10.2l5.68 3.12-5.68 3.12-5.68-3.12 5.68-3.12zm-6.08 3.96l5.68 3.12v6.24l-5.68-3.12v-6.24z" stroke="#000" stroke-opacity="0" fill="#0078d7"/><path d="M1451.44 36h-72.96c-2 0-3.52 1.56-3.52 3.24v53.52c0 1.86 1.68 3.24 3.52 3.24h72.96c2.08 0 3.52-1.56 3.52-3.24V39.24c0-1.68-1.52-3.24-3.52-3.24zm-36.72 49.68l-2.24 6.18v.18l-.16.18H1410.4h-.16v-.18l-2.24-6.18v-.54h1.52v.18l1.84 5.34 1.84-5.34v-.18l.16-.18h1.12v.18c.4.18.4.36.24.36zm9.76 6.36c-.24.18-.4.18-.4.18H1423.12h-.16v-5.88l-2.08 5.7v.18h-.32H1419.36v-.18l-2.16-5.7v5.88h-.4H1415.68V85.86c0-.18 0-.36.16-.36.24-.18.24-.18.4-.18h1.28c.16 0 .16 0 .4.18l.16.18c0 .18.24.18.24.36l1.6 4.08 1.68-4.08c0-.18.16-.36.16-.36 0-.18.16-.18.16-.18s.24-.18.4-.18h1.68s.16 0 .16.18c0 0 0 .18.24.18v.18l.08 6.18zm9.36-22.38c0 1.02-.96 1.68-1.84 1.68h-11.04c-1.12 4.02-.56 4.5 6.8 4.5v1.74h-23.04v-1.74c6.64 0 7.76-.48 6.8-4.5h-10.8c-1.12 0-1.84-.84-1.84-1.68V49.62c0-1.02.88-1.92 1.84-1.92h31.2c1.12 0 1.84.9 1.84 1.92v20.04z" stroke="#000" stroke-opacity="0" fill="#0078d7"/><use xlink:href="#E" transform="matrix(1,0,0,1,1344.9624999999999,104.99999999999996) translate(39.14999999999999 14.4)"/><path d="M1402.28 189.12h30.16v-18.96h-30.16v18.96zm21.68-5.52l-5.68 3.12v-6.24l5.68-3.12v6.24zm-6.24-10.2l5.68 3.12-5.68 3.12-5.68-3.12 5.68-3.12zm-6.08 3.96l5.68 3.12v6.24l-5.68-3.12v-6.24z" stroke="#000" stroke-opacity="0" fill="#0078d7"/><path d="M1452.44 156h-72.96c-2 0-3.52 1.56-3.52 3.24v53.52c0 1.86 1.68 3.24 3.52 3.24h72.96c2.08 0 3.52-1.56 3.52-3.24v-53.52c0-1.68-1.52-3.24-3.52-3.24zm-36.72 49.68l-2.24 6.18v.18l-.16.18H1411.4h-.16v-.18l-2.24-6.18v-.54h1.52v.18l1.84 5.34 1.84-5.34v-.18l.16-.18h1.12v.18c.4.18.4.36.24.36zm9.76 6.36c-.24.18-.4.18-.4.18H1424.12h-.16v-5.88l-2.08 5.7v.18h-.32H1420.36v-.18l-2.16-5.7v5.88h-.4H1416.68V205.86c0-.18 0-.36.16-.36.24-.18.24-.18.4-.18h1.28c.16 0 .16 0 .4.18l.16.18c0 .18.24.18.24.36l1.6 4.08 1.68-4.08c0-.18.16-.36.16-.36 0-.18.16-.18.16-.18s.24-.18.4-.18h1.68s.16 0 .16.18c0 0 0 .18.24.18v.18l.08 6.18zm9.36-22.38c0 1.02-.96 1.68-1.84 1.68h-11.04c-1.12 4.02-.56 4.5 6.8 4.5v1.74h-23.04v-1.74c6.64 0 7.76-.48 6.8-4.5h-10.8c-1.12 0-1.84-.84-1.84-1.68v-20.04c0-1.02.88-1.92 1.84-1.92h31.2c1.12 0 1.84.9 1.84 1.92v20.04z" stroke="#000" stroke-opacity="0" fill="#0078d7"/><use xlink:href="#F" transform="matrix(1,0,0,1,1345.9624999999999,224.99999999999994) translate(39.14999999999999 14.4)"/><path d="M2002.96-364c-2 0-3.84-.8-5.2-2.16l-32.64-32.64c-1.36-1.36-2.16-3.28-2.16-5.2 0-1.92.8-3.84 2.16-5.2l32.64-32.64c1.36-1.36 3.2-2.16 5.2-2.16s3.84.8 5.2 2.16l32.64 32.64c1.36 1.36 2.16 3.2 2.16 5.2s-.8 3.84-2.16 5.2l-32.64 32.64c-1.36 1.36-3.2 2.16-5.2 2.16" stroke="#000" stroke-opacity="0" fill="#7fba00"/><path d="M2035.94-404.5l-10.55-10.62v7.44h-11.3c-1.05-3.88-4.08-6.92-7.9-8.02v-10.67h7.32l-10.56-10.6-10.55 10.6h7.33v10.67c-3.83 1.1-6.86 4.14-7.92 8.02h-11.26v-7.38l-10.56 10.55 10.56 10.6v-7.5h11.27c1.07 3.87 4.1 6.9 7.93 8v7.45c-1.58 1.16-4.02 3.62-4.02 6.46 0 3.96 3.24 7.2 7.26 7.2 3.96 0 7.2-3.24 7.2-7.2 0-2.83-2.38-5.22-3.97-6.45v-7.44c3.82-1.1 6.85-4.13 7.9-7.94h11.3v7.37l10.54-10.54z" stroke="#000" stroke-opacity="0" fill="#fff"/><path d="M2002.96-412.96c-4.64 0-8.4 3.77-8.4 8.42 0 4.64 3.76 8.4 8.4 8.4 4.65 0 8.42-3.76 8.42-8.4 0-4.65-3.77-8.42-8.42-8.42z" stroke="#000" stroke-opacity="0" fill="#59b4d9"/><path d="M2008.2-441.83c-1.44-1.4-3.26-2.17-5.26-2.17-1.93 0-3.82.76-5.2 2.17l-32.62 32.6c-1.38 1.4-2.16 3.3-2.16 5.23 0 1.97.78 3.82 2.16 5.22l18.5 18.47 34.72-51.4-10.14-10.13z" stroke="#000" stroke-opacity="0" fill="#fff" fill-opacity=".15"/><use xlink:href="#B" transform="matrix(1,0,0,1,1932.9624999999999,-355) translate(26.549999999999997 14.4)"/><use xlink:href="#C" transform="matrix(1,0,0,1,1932.9624999999999,-355) translate(91.45 14.4)"/><path d="M1442.5 353.02v-4.43c0-8.82-2.87-17-7.88-22.78-4.64-6.02-14.96-9.82-22.66-9.82-7.7 0-18 3.8-22.66 9.82-4.82 5.78-7.87 13.96-7.87 22.77V353l14.1 1.78v-4c0-5.2 1.6-11.8 4.28-15.2 2.7-3.38 8.44-5 12.16-5.2 3.73 0 9.47 1.82 12.16 5.2 2.68 3.4 4.27 7.8 4.27 12.8v6.4l14.1-1.78z" stroke="#000" stroke-opacity="0" stroke-width="3" fill="#a0a1a2"/><path d="M1381.4 353c-6.96 0-9.44 4.6-9.44 10.58v41.84c0 5.16 2.88 10.58 8.24 10.58h63.52c6.08 0 8.24-5.42 8.24-10.58v-41.84c0-5.35-2-10.58-9.44-10.58h-61.12z" stroke="#000" stroke-opacity="0" stroke-width="3" fill="#59b4d9"/><path d="M1428.2 353h-46.8c-6.96 0-9.44 4.6-9.44 10.58v41.84c0 5.16 2.87 10.58 8.2 10.58h12l36.05-63z" stroke="#000" stroke-opacity="0" stroke-width="3" fill="#fff" fill-opacity=".15"/><path d="M1401.23 370.2l10.38-11.6 10.38 11.6h-7.3v8.4h-6.32v-8.4h-7.13zm-19.1 17.62v-6.84h10.74V373l10 11.2-10 11.18v-7.77h-10.73v.22zm29.48 22.58l-10.54-11.8h7.3v-8.2h6.3v8.2h7.5l-10.55 11.8zm29.47-22.58h-10.73v7.97l-10.2-11.4 10.2-11.4v7.98h10.73v6.84z" stroke="#000" stroke-opacity="0" stroke-width="3" fill="#fff"/><path d="M1390.86 327.46h44.68v34.76h-44.68v-34.76z" stroke="#000" stroke-opacity="0" stroke-width="0" fill-opacity="0"/><use xlink:href="#G" transform="matrix(1,0,0,1,1341.9624999999999,425) translate(9.324999999999996 14.4)"/><use xlink:href="#H" transform="matrix(1,0,0,1,1341.9624999999999,425) translate(64.82499999999999 14.4)"/><use xlink:href="#I" transform="matrix(1,0,0,1,1341.9624999999999,425) translate(30.025 36)"/><path d="M1319.46 375.85H825.38" stroke="#5e5e5e" stroke-width="5" fill="none"/><path d="M1321.96 378.35h-2.56v-5h2.56M825.44 378.35h-2.72l.24-1.88-.4-3.12h2.88" fill="#5e5e5e"/><path d="M1223.9 115.7L1374 66.54" stroke="#5e5e5e" stroke-width="2" fill="none"/><path d="M1224.25 116.63l-1.46.48.16-1.1-.1-1.02.77-.25M1374.96 67.3l-.66.2-.62-1.9 1.28-.4" fill="#5e5e5e"/><path d="M1223.87 116.42l151.18 69.4" stroke="#5e5e5e" stroke-width="2" fill="none"/><path d="M1224.3 115.52l-.82 1.82-.68-.3.16-1.04-.1-1.15M1375.96 185.14v2.2l-1.35-.62.85-1.82" fill="#5e5e5e"/><path d="M1562.06 115.58l-106.2-49.4" stroke="#5e5e5e" stroke-width="2" fill="none"/><path d="M1566.1 116.36l-.84 1.8-2.12-.97-.18-1.2.16-1.03m-.06-.03l-.1 1.06.1 1.15-1.45-.68.85-1.8M1456.3 65.3l-.83 1.8-.5-.24v-2.2" fill="#5e5e5e"/><path d="M1562.12 116.55L1456.8 185.2" stroke="#5e5e5e" stroke-width="2" fill="none"/><path d="M1562.96 116l.1 1.12-.4.28-1.1-1.68 1.52-1m2.94.48l-2.9 1.9-.16-1.1.2-1.33 1.77-1.15M1457.37 186.04l-1.4.9v-2.37l.3-.2" fill="#5e5e5e"/><path d="M2023.38-428.02l79.64-99.33" stroke="#5e5e5e" stroke-width="2" fill="none"/><path d="M2024.18-427.42l-.7.9-1.43-1.44.57-.7M2103.65-526.82l-1.43-1.14 1.43-1.77" fill="#5e5e5e"/><path d="M2037-414h64.96" stroke="#5e5e5e" stroke-width="2" fill="none"/><path d="M2037.03-413h-.03l-2-2h2.03M2102.96-413h-1.02v-2h1.02" fill="#5e5e5e"/><path d="M2029.98-386.57l72.36 92.02" stroke="#5e5e5e" stroke-width="2" fill="none"/><path d="M2030.78-387.17l-1.57 1.23-.55-.7 1.42-1.43M2102.96-292.14l-1.42-1.8 1.42-1.12" fill="#5e5e5e"/><path d="M2340.07-396.65l102.2 102.18" stroke="#5e5e5e" stroke-width="2" fill="none"/><path d="M2340.8-397.34l-1.42 1.4-.72-.7 1.4-1.43M2442.96-295.17v2.82l-1.43-1.43 1.4-1.4" fill="#5e5e5e"/><path d="M2333.46-417.95l109.48-109.48" stroke="#5e5e5e" stroke-width="2" fill="none"/><path d="M2334.2-417.26l-.74.72-1.4-1.4.72-.74M2443.65-526.72l-.02.02-1.42-1.4 1.45-1.45" fill="#5e5e5e"/><path d="M2343.32-406.88l98.64-6.8" stroke="#5e5e5e" stroke-width="2" fill="none"/><path d="M2343.42-405.9l-.75.06-.56-1.6-.25-.34 1.43-.1M2442.96-412.76l-.95.07-.13-2 1.1-.06" fill="#5e5e5e"/><path d="M2060 286c0-3.3 2.7-6 6-6h28c3.3 0 6 2.7 6 6v48c0 3.3-2.7 6-6 6h-28c-3.3 0-6-2.7-6-6z" fill="#19967d"/><path d="M2060 286l.82-3.03 2.15-2.15 3.03-.82h28l3.03.82 2.15 2.15.82 3.03v48l-.82 3.03-2.15 2.15-3.03.82h-28l-3.03-.82-2.15-2.15-.82-3.03z" stroke="#fff" stroke-width="3" fill="none"/><use xlink:href="#J" transform="matrix(1,0,0,1,2065,285) translate(3.9259259259259274 30.333333333333332)"/><path d="M2060 66c0-3.3 2.7-6 6-6h28c3.3 0 6 2.7 6 6v48c0 3.3-2.7 6-6 6h-28c-3.3 0-6-2.7-6-6z" fill="#19967d"/><path d="M2060 66l.82-3.03 2.15-2.15L2066 60h28l3.03.82 2.15 2.15.82 3.03v48l-.82 3.03-2.15 2.15-3.03.82h-28l-3.03-.82-2.15-2.15-.82-3.03z" stroke="#fff" stroke-width="3" fill="none"/><use xlink:href="#K" transform="matrix(1,0,0,1,2065,65) translate(6.888888888888889 30.333333333333332)"/><path d="M2540-554c0-3.3 2.7-6 6-6h28c3.3 0 6 2.7 6 6v48c0 3.3-2.7 6-6 6h-28c-3.3 0-6-2.7-6-6z" fill="#19967d"/><path d="M2540-554l.82-3.03 2.15-2.15 3.03-.82h28l3.03.82 2.15 2.15.82 3.03v48l-.82 3.03-2.15 2.15-3.03.82h-28l-3.03-.82-2.15-2.15-.82-3.03z" stroke="#fff" stroke-width="3" fill="none"/><use xlink:href="#L" transform="matrix(1,0,0,1,2545,-555) translate(5.407407407407408 30.333333333333332)"/><path d="M2280-514c0-3.3 2.7-6 6-6h28c3.3 0 6 2.7 6 6v48c0 3.3-2.7 6-6 6h-28c-3.3 0-6-2.7-6-6z" fill="#19967d"/><path d="M2280-514l.82-3.03 2.15-2.15 3.03-.82h28l3.03.82 2.15 2.15.82 3.03v48l-.82 3.03-2.15 2.15-3.03.82h-28l-3.03-.82-2.15-2.15-.82-3.03z" stroke="#fff" stroke-width="3" fill="none"/><use xlink:href="#M" transform="matrix(1,0,0,1,2285,-515) translate(7.5925925925925934 30.333333333333332)"/><path d="M1980-514c0-3.3 2.7-6 6-6h28c3.3 0 6 2.7 6 6v48c0 3.3-2.7 6-6 6h-28c-3.3 0-6-2.7-6-6z" fill="#19967d"/><path d="M1980-514l.82-3.03 2.15-2.15 3.03-.82h28l3.03.82 2.15 2.15.82 3.03v48l-.82 3.03-2.15 2.15-3.03.82h-28l-3.03-.82-2.15-2.15-.82-3.03z" stroke="#fff" stroke-width="3" fill="none"/><use xlink:href="#N" transform="matrix(1,0,0,1,1985,-515) translate(5.407407407407408 30.333333333333332)"/><path d="M2200-554c0-3.3 2.7-6 6-6h28c3.3 0 6 2.7 6 6v48c0 3.3-2.7 6-6 6h-28c-3.3 0-6-2.7-6-6z" fill="#19967d"/><path d="M2200-554l.82-3.03 2.15-2.15 3.03-.82h28l3.03.82 2.15 2.15.82 3.03v48l-.82 3.03-2.15 2.15-3.03.82h-28l-3.03-.82-2.15-2.15-.82-3.03z" stroke="#fff" stroke-width="3" fill="none"/><use xlink:href="#O" transform="matrix(1,0,0,1,2205,-555) translate(11.296296296296298 30.333333333333332)"/><path d="M1460 366c0-3.3 2.7-6 6-6h28c3.3 0 6 2.7 6 6v48c0 3.3-2.7 6-6 6h-28c-3.3 0-6-2.7-6-6z" fill="#19967d"/><path d="M1460 366l.82-3.03 2.15-2.15 3.03-.82h28l3.03.82 2.15 2.15.82 3.03v48l-.82 3.03-2.15 2.15-3.03.82h-28l-3.03-.82-2.15-2.15-.82-3.03z" stroke="#fff" stroke-width="3" fill="none"/><use xlink:href="#P" transform="matrix(1,0,0,1,1465,365) translate(5.407407407407408 30.333333333333332)"/><path d="M497.04 486c0-3.3 2.68-6 6-6h28c3.3 0 6 2.7 6 6v48c0 3.3-2.7 6-6 6h-28c-3.32 0-6-2.7-6-6z" fill="#19967d"/><path d="M497.04 486l.82-3.03 2.15-2.15 3.04-.82h28l3.03.82 2.15 2.15.82 3.03v48l-.82 3.03-2.15 2.15-3.03.82h-28l-3.03-.82-2.14-2.15-.82-3.03z" stroke="#fff" stroke-width="3" fill="none"/><use xlink:href="#Q" transform="matrix(1,0,0,1,502.03750000000014,485) translate(5.407407407407408 30.333333333333332)"/><path d="M1080 90.3c0-3.3 2.7-6 6-6h28c3.3 0 6 2.7 6 6v48c0 3.33-2.7 6-6 6h-28c-3.3 0-6-2.67-6-6z" fill="#19967d"/><path d="M1080 90.3l.82-3.02 2.15-2.15 3.03-.82h28l3.03.83 2.15 2.15.82 3.03v48l-.82 3.04-2.15 2.15-3.03.8h-28l-3.03-.8-2.15-2.16-.82-3.03z" stroke="#fff" stroke-width="3" fill="none"/><use xlink:href="#R" transform="matrix(1,0,0,1,1085,89.31313967400408) translate(5.407407407407408 30.333333333333332)"/><path d="M1460 6c0-3.3 2.7-6 6-6h28c3.3 0 6 2.7 6 6v48c0 3.3-2.7 6-6 6h-28c-3.3 0-6-2.7-6-6z" fill="#19967d"/><path d="M1460 6l.82-3.03 2.15-2.15L1466 0h28l3.03.82 2.15 2.15L1500 6v48l-.82 3.03-2.15 2.15-3.03.82h-28l-3.03-.82-2.15-2.15L1460 54z" stroke="#fff" stroke-width="3" fill="none"/><use xlink:href="#S" transform="matrix(1,0,0,1,1465,5) translate(6.888888888888889 30.333333333333332)"/><path d="M792.72 13.3c18.36 8.58 30.24 28.38 30.24 51.04 0 25.96-15.84 48.18-37.8 53.9l-7.2 1.76H517.68c-30.24 0-54.72-27.94-54.72-61.6s24.48-61.6 54.72-61.6c2.52 0 3.96 0 6.48.66 9-16.28 24.48-25.52 41.76-25.52 4.68 0 9 .66 13.68 2.2v-2.2c0-40.04 28.44-71.94 64.08-71.94 24.48 0 47.16 16.72 57.6 41.8 9-5.94 19.44-9.24 30.24-9.24 34.2 0 61.92 31.24 61.92 69.52.36 3.52 0 7.04-.72 11.22z" stroke="#000" stroke-opacity="0" fill="#b2b2b2"/><use xlink:href="#T" transform="matrix(1,0,0,1,432.96249999999986,129) translate(179.525 14.4)"/><path d="M642.96-14c0-3.3 2.7-6 6-6h28c3.32 0 6 2.7 6 6v48c0 3.3-2.68 6-6 6h-28c-3.3 0-6-2.7-6-6z" fill="#19967d"/><path d="M642.96-14l.82-3.03 2.15-2.15 3.03-.82h28l3.03.82 2.14 2.15.82 3.03v48l-.82 3.03-2.15 2.15-3.04.82h-28l-3.03-.82-2.15-2.15-.82-3.03z" stroke="#fff" stroke-width="3" fill="none"/><use xlink:href="#U" transform="matrix(1,0,0,1,647.9624999999999,-15) translate(2 30.333333333333332)"/><path d="M1580 6c0-3.3 2.7-6 6-6h28c3.3 0 6 2.7 6 6v48c0 3.3-2.7 6-6 6h-28c-3.3 0-6-2.7-6-6z" fill="#19967d"/><path d="M1580 6l.82-3.03 2.15-2.15L1586 0h28l3.03.82 2.15 2.15L1620 6v48l-.82 3.03-2.15 2.15-3.03.82h-28l-3.03-.82-2.15-2.15L1580 54z" stroke="#fff" stroke-width="3" fill="none"/><use xlink:href="#V" transform="matrix(1,0,0,1,1585,5) translate(4.62962962962963 30.333333333333332)"/><path d="M1162.96 41.94c0 1.13.72 2.06 1.6 2.06h36.8c.88 0 1.6-.93 1.6-2.06V9.6h-40v32.34z" stroke="#000" stroke-opacity="0" fill="#59b4d9"/><path d="M1201.36 0h-36.8c-.88 0-1.6.93-1.6 2.07v10.97h40V2.07c0-1.14-.72-2.07-1.6-2.07" stroke="#000" stroke-opacity="0" fill="#a0a1a2"/><path d="M1164.57 0c-.87 0-1.6.92-1.6 2.07V41.9c0 1.16.73 2.08 1.6 2.08h1.75l31.54-44h-33.3z" stroke="#000" stroke-opacity="0" fill="#fff" fill-opacity=".2"/><path d="M1173.25 4.93h26.93V9h-26.93V4.93z" stroke="#000" stroke-opacity="0" fill="#fff"/><path d="M1172 6.9c0 2.78-1.74 5.03-3.9 5.03-2.15 0-3.9-2.25-3.9-5.03 0-2.78 1.75-5.04 3.9-5.04 2.16 0 3.9 2.26 3.9 5.04" stroke="#000" stroke-opacity="0" fill="#59b4d9"/><path d="M1167.7 7.47l1.77 2.4h-.97l-2.36-2.9 2.36-2.9h.96l-1.77 2.38h4.3v1.02h-4.3zM1176.9 33.1c0 .6-.16 1.07-.48 1.45-.33.37-.76.56-1.3.56-.46 0-.87-.18-1.2-.56-.33-.4-.5-.87-.5-1.44 0-.58.17-1.05.5-1.43.33-.37.75-.55 1.26-.55.5 0 .9.2 1.23.57.34.37.5.84.5 1.4zM1184.03 33.1c0 .6-.17 1.07-.5 1.45-.3.37-.75.56-1.27.56-.48 0-.88-.18-1.2-.56-.34-.4-.5-.87-.5-1.44 0-.58.16-1.05.5-1.43.32-.37.74-.55 1.24-.55s.9.2 1.23.57c.33.37.5.84.5 1.4zM1191.15 33.1c0 .6-.16 1.07-.5 1.45-.3.37-.74.56-1.27.56-.48 0-.88-.18-1.2-.56-.34-.4-.5-.87-.5-1.44 0-.58.16-1.05.5-1.43.32-.37.74-.55 1.24-.55s.9.2 1.23.57c.33.37.5.84.5 1.4z" stroke="#000" stroke-opacity="0" fill="#fff"/><g><use xlink:href="#W" transform="matrix(1,0,0,1,1132.9624999999999,53) translate(35.5 14.4)"/></g><path d="M1203.93 22.25L1374 66" stroke="#5e5e5e" stroke-width="2" fill="none"/><path d="M1204.2 21.3l-.5 1.92-.74-.2v-2.05" fill="#5e5e5e"/><path d="M1373.97 65.98l1 .26" stroke="#5e5e5e" stroke-width="2" fill="none"/><path d="M1162.96 247.93c0 1.14.72 2.07 1.6 2.07h36.8c.88 0 1.6-.93 1.6-2.07V215.6h-40v32.33z" stroke="#000" stroke-opacity="0" fill="#59b4d9"/><path d="M1201.36 206h-36.8c-.88 0-1.6.92-1.6 2.07v10.97h40v-10.97c0-1.15-.72-2.07-1.6-2.07" stroke="#000" stroke-opacity="0" fill="#a0a1a2"/><path d="M1164.57 206c-.87 0-1.6.92-1.6 2.07V247.9c0 1.15.73 2.08 1.6 2.08h1.75l31.54-44h-33.3z" stroke="#000" stroke-opacity="0" fill="#fff" fill-opacity=".2"/><path d="M1173.25 210.93h26.93V215h-26.93v-4.07z" stroke="#000" stroke-opacity="0" fill="#fff"/><path d="M1172 212.9c0 2.77-1.74 5.03-3.9 5.03-2.15 0-3.9-2.26-3.9-5.04 0-2.78 1.75-5.04 3.9-5.04 2.16 0 3.9 2.26 3.9 5.03" stroke="#000" stroke-opacity="0" fill="#59b4d9"/><path d="M1167.7 213.46l1.77 2.4h-.97l-2.36-2.9 2.36-2.9h.96l-1.77 2.4h4.3v1h-4.3zM1176.9 239.1c0 .6-.16 1.07-.48 1.45-.33.37-.76.56-1.3.56-.46 0-.87-.18-1.2-.57-.33-.38-.5-.86-.5-1.43 0-.58.17-1.06.5-1.43.33-.37.75-.55 1.26-.55.5 0 .9.2 1.23.56.34.38.5.86.5 1.42zM1184.03 239.1c0 .6-.17 1.07-.5 1.45-.3.37-.75.56-1.27.56-.48 0-.88-.18-1.2-.57-.34-.38-.5-.86-.5-1.43 0-.58.16-1.06.5-1.43.32-.37.74-.55 1.24-.55s.9.2 1.23.56c.33.38.5.86.5 1.42zM1191.15 239.1c0 .6-.16 1.07-.5 1.45-.3.37-.74.56-1.27.56-.48 0-.88-.18-1.2-.57-.34-.38-.5-.86-.5-1.43 0-.58.16-1.06.5-1.43.32-.37.74-.55 1.24-.55s.9.2 1.23.56c.33.38.5.86.5 1.42z" stroke="#000" stroke-opacity="0" fill="#fff"/><g><use xlink:href="#W" transform="matrix(1,0,0,1,1132.9624999999999,258.99832955192767) translate(35.5 14.4)"/></g><path d="M1203.93 227.76l171.06-41.3" stroke="#5e5e5e" stroke-width="2" fill="none"/><path d="M1204.2 228.73l-1.24.3v-2.06l.76-.18" fill="#5e5e5e"/><path d="M1374.97 186.48l1-.24" stroke="#5e5e5e" stroke-width="2" fill="none"/><path d="M1080-2c0-3.3 2.7-6 6-6h28c3.3 0 6 2.7 6 6v48c0 3.3-2.7 6-6 6h-28c-3.3 0-6-2.7-6-6z" fill="#19967d"/><path d="M1080-2l.82-3.03 2.15-2.15L1086-8h28l3.03.82 2.15 2.15L1120-2v48l-.82 3.03-2.15 2.15-3.03.82h-28l-3.03-.82-2.15-2.15L1080 46z" stroke="#fff" stroke-width="3" fill="none"/><g><use xlink:href="#X" transform="matrix(1,0,0,1,1085,-3) translate(5.407407407407408 30.333333333333332)"/></g><path d="M1080 197.5c0-3.3 2.7-6 6-6h28c3.3 0 6 2.7 6 6v48c0 3.3-2.7 6-6 6h-28c-3.3 0-6-2.7-6-6z" fill="#19967d"/><path d="M1080 197.5l.82-3.03 2.15-2.15 3.03-.82h28l3.03.82 2.15 2.15.82 3.03v48l-.82 3.03-2.15 2.15-3.03.82h-28l-3.03-.82-2.15-2.15-.82-3.03z" stroke="#fff" stroke-width="3" fill="none"/><g><use xlink:href="#Y" transform="matrix(1,0,0,1,1085,196.5) translate(6.111111111111111 30.333333333333332)"/></g><path d="M980-620h440v120H980z" fill="#fff" fill-opacity="0"/><path d="M1024-620h-44v120h44" stroke="#000" stroke-width="2" fill="none"/><g><use xlink:href="#Z" transform="matrix(1,0,0,1,1012.5,-615) translate(0 47.8)"/><use xlink:href="#aa" transform="matrix(1,0,0,1,1012.5,-615) translate(78.95 47.8)"/><use xlink:href="#ab" transform="matrix(1,0,0,1,1012.5,-615) translate(144.75 47.8)"/><use xlink:href="#ac" transform="matrix(1,0,0,1,1012.5,-615) translate(200.55 47.8)"/><use xlink:href="#ad" transform="matrix(1,0,0,1,1012.5,-615) translate(0 69.4)"/><use xlink:href="#ae" transform="matrix(1,0,0,1,1012.5,-615) translate(49.800000000000004 69.4)"/><use xlink:href="#af" transform="matrix(1,0,0,1,1012.5,-615) translate(105.80000000000001 69.4)"/><use xlink:href="#ag" transform="matrix(1,0,0,1,1012.5,-615) translate(158.35000000000002 69.4)"/><use xlink:href="#ah" transform="matrix(1,0,0,1,1012.5,-615) translate(207.20000000000005 69.4)"/><use xlink:href="#ai" transform="matrix(1,0,0,1,1012.5,-615) translate(228.65000000000003 69.4)"/><use xlink:href="#aj" transform="matrix(1,0,0,1,1012.5,-615) translate(268.25000000000006 69.4)"/><use xlink:href="#ak" transform="matrix(1,0,0,1,1012.5,-615) translate(300.25000000000006 69.4)"/></g><path d="M980-474h440v120H980z" fill="#fff" fill-opacity="0"/><path d="M1024-474h-44v120h44" stroke="#000" stroke-width="2" fill="none"/><g><use xlink:href="#al" transform="matrix(1,0,0,1,1012.5,-468.99999999999966) translate(0 47.8)"/><use xlink:href="#aa" transform="matrix(1,0,0,1,1012.5,-468.99999999999966) translate(58.900000000000006 47.8)"/><use xlink:href="#ab" transform="matrix(1,0,0,1,1012.5,-468.99999999999966) translate(124.70000000000002 47.8)"/><use xlink:href="#am" transform="matrix(1,0,0,1,1012.5,-468.99999999999966) translate(180.50000000000003 47.8)"/><use xlink:href="#an" transform="matrix(1,0,0,1,1012.5,-468.99999999999966) translate(0 69.4)"/><use xlink:href="#ao" transform="matrix(1,0,0,1,1012.5,-468.99999999999966) translate(49.800000000000004 69.4)"/><use xlink:href="#ah" transform="matrix(1,0,0,1,1012.5,-468.99999999999966) translate(124.80000000000001 69.4)"/><use xlink:href="#ai" transform="matrix(1,0,0,1,1012.5,-468.99999999999966) translate(146.25 69.4)"/><use xlink:href="#aj" transform="matrix(1,0,0,1,1012.5,-468.99999999999966) translate(185.85 69.4)"/><use xlink:href="#ak" transform="matrix(1,0,0,1,1012.5,-468.99999999999966) translate(217.85 69.4)"/></g><path d="M2021.96-644h240v60h-240z" stroke="#000" stroke-opacity="0" stroke-width="2" fill="#fff" fill-opacity="0"/><g><use xlink:href="#ap" transform="matrix(1,0,0,1,2026.9624999999996,-639) translate(79.05000000000001 30.025)"/></g><path d="M2374.46-644h240v60h-240z" stroke="#000" stroke-opacity="0" stroke-width="2" fill="#fff" fill-opacity="0"/><g><use xlink:href="#aq" transform="matrix(1,0,0,1,2379.4624999999996,-639) translate(80 30.025)"/></g><defs><path d="M136-208V0H84v-208H4v-40h212v40h-80" id="ar"/><path d="M135-150c-39-12-60 13-60 57V0H25l-1-190h47c2 13-1 29 3 40 6-28 27-53 61-41v41" id="as"/><path d="M133-34C117-15 103 5 69 4 32 3 11-16 11-54c-1-60 55-63 116-61 1-26-3-47-28-47-18 1-26 9-28 27l-52-2c7-38 36-58 82-57s74 22 75 68l1 82c-1 14 12 18 25 15v27c-30 8-71 5-69-32zm-48 3c29 0 43-24 42-57-32 0-66-3-65 30 0 17 8 27 23 27" id="at"/><path d="M135-194c87-1 58 113 63 194h-50c-7-57 23-157-34-157-59 0-34 97-39 157H25l-1-190h47c2 12-1 28 3 38 12-26 28-41 61-42" id="au"/><path d="M137-138c1-29-70-34-71-4 15 46 118 7 119 86 1 83-164 76-172 9l43-7c4 19 20 25 44 25 33 8 57-30 24-41C81-84 22-81 20-136c-2-80 154-74 161-7" id="av"/><path d="M25-224v-37h50v37H25zM25 0v-190h50V0H25" id="aw"/><path d="M115-3C79 11 28 4 28-45v-112H4v-33h27l15-45h31v45h36v33H77v99c-1 23 16 31 38 25v30" id="ax"/><g id="a"><use transform="matrix(0.056172839506172835,0,0,0.056172839506172835,0,0)" xlink:href="#ar"/><use transform="matrix(0.056172839506172835,0,0,0.056172839506172835,11.178395061728393,0)" xlink:href="#as"/><use transform="matrix(0.056172839506172835,0,0,0.056172839506172835,19.04259259259259,0)" xlink:href="#at"/><use transform="matrix(0.056172839506172835,0,0,0.056172839506172835,30.277160493827157,0)" xlink:href="#au"/><use transform="matrix(0.056172839506172835,0,0,0.056172839506172835,42.579012345679004,0)" xlink:href="#av"/><use transform="matrix(0.056172839506172835,0,0,0.056172839506172835,53.813580246913574,0)" xlink:href="#aw"/><use transform="matrix(0.056172839506172835,0,0,0.056172839506172835,59.43086419753086,0)" xlink:href="#ax"/></g><path d="M135-143c-3-34-86-38-87 0 15 53 115 12 119 90S17 21 10-45l28-5c4 36 97 45 98 0-10-56-113-15-118-90-4-57 82-63 122-42 12 7 21 19 24 35" id="ay"/><path d="M117-194c89-4 53 116 60 194h-32v-121c0-31-8-49-39-48C34-167 62-67 57 0H25l-1-190h30c1 10-1 24 2 32 11-22 29-35 61-36" id="az"/><path d="M100-194c63 0 86 42 84 106H49c0 40 14 67 53 68 26 1 43-12 49-29l28 8c-11 28-37 45-77 45C44 4 14-33 15-96c1-61 26-98 85-98zm52 81c6-60-76-77-97-28-3 7-6 17-6 28h103" id="aA"/><path d="M59-47c-2 24 18 29 38 22v24C64 9 27 4 27-40v-127H5v-23h24l9-43h21v43h35v23H59v120" id="aB"/><path d="M16-82v-28h88v28H16" id="aC"/><path d="M141-36C126-15 110 5 73 4 37 3 15-17 15-53c-1-64 63-63 125-63 3-35-9-54-41-54-24 1-41 7-42 31l-33-3c5-37 33-52 76-52 45 0 72 20 72 64v82c-1 20 7 32 28 27v20c-31 9-61-2-59-35zM48-53c0 20 12 33 32 33 41-3 63-29 60-74-43 2-92-5-92 41" id="aD"/><path d="M85-194c31 0 48 13 60 33l-1-100h32l1 261h-30c-2-10 0-23-3-31C134-8 116 4 85 4 32 4 16-35 15-94c0-66 23-100 70-100zm9 24c-40 0-46 34-46 75 0 40 6 74 45 74 42 0 51-32 51-76 0-42-9-74-50-73" id="aE"/><g id="b"><use transform="matrix(0.04999999999999999,0,0,0.04999999999999999,0,0)" xlink:href="#ay"/><use transform="matrix(0.04999999999999999,0,0,0.04999999999999999,8.999999999999998,0)" xlink:href="#az"/><use transform="matrix(0.04999999999999999,0,0,0.04999999999999999,18.999999999999996,0)" xlink:href="#aA"/><use transform="matrix(0.04999999999999999,0,0,0.04999999999999999,28.999999999999993,0)" xlink:href="#aB"/><use transform="matrix(0.04999999999999999,0,0,0.04999999999999999,33.99999999999999,0)" xlink:href="#aC"/><use transform="matrix(0.04999999999999999,0,0,0.04999999999999999,39.94999999999999,0)" xlink:href="#aD"/><use transform="matrix(0.04999999999999999,0,0,0.04999999999999999,49.94999999999999,0)" xlink:href="#aE"/></g><g id="c"><use transform="matrix(0.04999999999999999,0,0,0.04999999999999999,0,0)" xlink:href="#ay"/><use transform="matrix(0.04999999999999999,0,0,0.04999999999999999,8.999999999999998,0)" xlink:href="#az"/><use transform="matrix(0.04999999999999999,0,0,0.04999999999999999,18.999999999999996,0)" xlink:href="#aA"/><use transform="matrix(0.04999999999999999,0,0,0.04999999999999999,28.999999999999993,0)" xlink:href="#aB"/><use transform="matrix(0.04999999999999999,0,0,0.04999999999999999,33.99999999999999,0)" xlink:href="#aC"/><use transform="matrix(0.04999999999999999,0,0,0.04999999999999999,39.94999999999999,0)" xlink:href="#aE"/><use transform="matrix(0.04999999999999999,0,0,0.04999999999999999,49.94999999999999,0)" xlink:href="#az"/><use transform="matrix(0.04999999999999999,0,0,0.04999999999999999,59.94999999999999,0)" xlink:href="#ay"/></g><path d="M62-168c30 0 50 19 50 48S92-70 62-70c-29 0-48-21-48-50s20-48 48-48" id="aF"/><use transform="matrix(0.04999999999999999,0,0,0.04999999999999999,0,0)" xlink:href="#aF" id="d"/><path d="M137 0h-34L2-248h35l83 218 83-218h36" id="aG"/><path d="M190 0L58-211 59 0H30v-248h39L202-35l-2-213h31V0h-41" id="aH"/><g id="e"><use transform="matrix(0.04999999999999999,0,0,0.04999999999999999,0,0)" xlink:href="#aG"/><use transform="matrix(0.04999999999999999,0,0,0.04999999999999999,11.999999999999996,0)" xlink:href="#aH"/><use transform="matrix(0.04999999999999999,0,0,0.04999999999999999,24.949999999999996,0)" xlink:href="#aA"/><use transform="matrix(0.04999999999999999,0,0,0.04999999999999999,34.949999999999996,0)" xlink:href="#aB"/></g><path d="M30-248c118-7 216 8 213 122C240-48 200 0 122 0H30v-248zM63-27c89 8 146-16 146-99s-60-101-146-95v194" id="aI"/><path d="M185-189c-5-48-123-54-124 2 14 75 158 14 163 119 3 78-121 87-175 55-17-10-28-26-33-46l33-7c5 56 141 63 141-1 0-78-155-14-162-118-5-82 145-84 179-34 5 7 8 16 11 25" id="aJ"/><g id="f"><use transform="matrix(0.04999999999999999,0,0,0.04999999999999999,0,0)" xlink:href="#aI"/><use transform="matrix(0.04999999999999999,0,0,0.04999999999999999,12.949999999999998,0)" xlink:href="#aH"/><use transform="matrix(0.04999999999999999,0,0,0.04999999999999999,25.899999999999995,0)" xlink:href="#aJ"/></g><g id="g"><use transform="matrix(0.04999999999999999,0,0,0.04999999999999999,0,0)" xlink:href="#ay"/><use transform="matrix(0.04999999999999999,0,0,0.04999999999999999,8.999999999999998,0)" xlink:href="#aA"/><use transform="matrix(0.04999999999999999,0,0,0.04999999999999999,18.999999999999996,0)" xlink:href="#aB"/></g><path d="M100-194c62-1 85 37 85 99 1 63-27 99-86 99S16-35 15-95c0-66 28-99 85-99zM99-20c44 1 53-31 53-75 0-43-8-75-51-75s-53 32-53 75 10 74 51 75" id="aK"/><g id="h"><use transform="matrix(0.04999999999999999,0,0,0.04999999999999999,0,0)" xlink:href="#aB"/><use transform="matrix(0.04999999999999999,0,0,0.04999999999999999,4.999999999999999,0)" xlink:href="#aK"/></g><g id="i"><use transform="matrix(0.04999999999999999,0,0,0.04999999999999999,0,0)" xlink:href="#aI"/><use transform="matrix(0.04999999999999999,0,0,0.04999999999999999,12.949999999999998,0)" xlink:href="#aH"/><use transform="matrix(0.04999999999999999,0,0,0.04999999999999999,25.899999999999995,0)" xlink:href="#aJ"/></g><path d="M114-163C36-179 61-72 57 0H25l-1-190h30c1 12-1 29 2 39 6-27 23-49 58-41v29" id="aL"/><path d="M108 0H70L1-190h34L89-25l56-165h34" id="aM"/><g id="j"><use transform="matrix(0.04999999999999999,0,0,0.04999999999999999,0,0)" xlink:href="#aJ"/><use transform="matrix(0.04999999999999999,0,0,0.04999999999999999,11.999999999999996,0)" xlink:href="#aA"/><use transform="matrix(0.04999999999999999,0,0,0.04999999999999999,21.999999999999993,0)" xlink:href="#aL"/><use transform="matrix(0.04999999999999999,0,0,0.04999999999999999,27.949999999999992,0)" xlink:href="#aM"/><use transform="matrix(0.04999999999999999,0,0,0.04999999999999999,36.94999999999999,0)" xlink:href="#aA"/><use transform="matrix(0.04999999999999999,0,0,0.04999999999999999,46.94999999999999,0)" xlink:href="#aL"/></g><path d="M24-231v-30h32v30H24zM24 0v-190h32V0H24" id="aN"/><g id="k"><use transform="matrix(0.04999999999999999,0,0,0.04999999999999999,0,0)" xlink:href="#aN"/><use transform="matrix(0.04999999999999999,0,0,0.04999999999999999,3.9499999999999993,0)" xlink:href="#az"/></g><path d="M106-169C34-169 62-67 57 0H25v-261h32l-1 103c12-21 28-36 61-36 89 0 53 116 60 194h-32v-121c2-32-8-49-39-48" id="aO"/><g id="l"><use transform="matrix(0.04999999999999999,0,0,0.04999999999999999,0,0)" xlink:href="#aJ"/><use transform="matrix(0.04999999999999999,0,0,0.04999999999999999,11.999999999999996,0)" xlink:href="#aO"/><use transform="matrix(0.04999999999999999,0,0,0.04999999999999999,21.999999999999993,0)" xlink:href="#aD"/><use transform="matrix(0.04999999999999999,0,0,0.04999999999999999,31.999999999999993,0)" xlink:href="#aL"/><use transform="matrix(0.04999999999999999,0,0,0.04999999999999999,37.94999999999999,0)" xlink:href="#aA"/><use transform="matrix(0.04999999999999999,0,0,0.04999999999999999,47.94999999999999,0)" xlink:href="#aE"/></g><path d="M96-169c-40 0-48 33-48 73s9 75 48 75c24 0 41-14 43-38l32 2c-6 37-31 61-74 61-59 0-76-41-82-99-10-93 101-131 147-64 4 7 5 14 7 22l-32 3c-4-21-16-35-41-35" id="aP"/><g id="m"><use transform="matrix(0.04999999999999999,0,0,0.04999999999999999,0,0)" xlink:href="#aJ"/><use transform="matrix(0.04999999999999999,0,0,0.04999999999999999,11.999999999999996,0)" xlink:href="#aA"/><use transform="matrix(0.04999999999999999,0,0,0.04999999999999999,21.999999999999993,0)" xlink:href="#aL"/><use transform="matrix(0.04999999999999999,0,0,0.04999999999999999,27.949999999999992,0)" xlink:href="#aM"/><use transform="matrix(0.04999999999999999,0,0,0.04999999999999999,36.94999999999999,0)" xlink:href="#aN"/><use transform="matrix(0.04999999999999999,0,0,0.04999999999999999,40.89999999999999,0)" xlink:href="#aP"/><use transform="matrix(0.04999999999999999,0,0,0.04999999999999999,49.89999999999999,0)" xlink:href="#aA"/><use transform="matrix(0.04999999999999999,0,0,0.04999999999999999,59.899999999999984,0)" xlink:href="#ay"/></g><path d="M30-248c87 1 191-15 191 75 0 78-77 80-158 76V0H30v-248zm33 125c57 0 124 11 124-50 0-59-68-47-124-48v98" id="aQ"/><path d="M177-190C167-65 218 103 67 71c-23-6-38-20-44-43l32-5c15 47 100 32 89-28v-30C133-14 115 1 83 1 29 1 15-40 15-95c0-56 16-97 71-98 29-1 48 16 59 35 1-10 0-23 2-32h30zM94-22c36 0 50-32 50-73 0-42-14-75-50-75-39 0-46 34-46 75s6 73 46 73" id="aR"/><g id="n"><use transform="matrix(0.05,0,0,0.05,0,0)" xlink:href="#aQ"/><use transform="matrix(0.05,0,0,0.05,12,0)" xlink:href="#aA"/><use transform="matrix(0.05,0,0,0.05,22,0)" xlink:href="#aA"/><use transform="matrix(0.05,0,0,0.05,32,0)" xlink:href="#aL"/><use transform="matrix(0.05,0,0,0.05,37.95,0)" xlink:href="#aN"/><use transform="matrix(0.05,0,0,0.05,41.900000000000006,0)" xlink:href="#az"/><use transform="matrix(0.05,0,0,0.05,51.900000000000006,0)" xlink:href="#aR"/></g><path d="M169-182c-1-43-94-46-97-3 18 66 151 10 154 114 3 95-165 93-204 36-6-8-10-19-12-30l50-8c3 46 112 56 116 5-17-69-150-10-154-114-4-87 153-88 188-35 5 8 8 18 10 28" id="aS"/><path d="M135-194c53 0 70 44 70 98 0 56-19 98-73 100-31 1-45-17-59-34 3 33 2 69 2 105H25l-1-265h48c2 10 0 23 3 31 11-24 29-35 60-35zM114-30c33 0 39-31 40-66 0-38-9-64-40-64-56 0-55 130 0 130" id="aT"/><path d="M110-194c64 0 96 36 96 99 0 64-35 99-97 99-61 0-95-36-95-99 0-62 34-99 96-99zm-1 164c35 0 45-28 45-65 0-40-10-65-43-65-34 0-45 26-45 65 0 36 10 65 43 65" id="aU"/><path d="M147 0L96-86 75-71V0H25v-261h50v150l67-79h53l-66 74L201 0h-54" id="aV"/><path d="M185-48c-13 30-37 53-82 52C43 2 14-33 14-96s30-98 90-98c62 0 83 45 84 108H66c0 31 8 55 39 56 18 0 30-7 34-22zm-45-69c5-46-57-63-70-21-2 6-4 13-4 21h74" id="aW"/><g id="o"><use transform="matrix(0.056172839506172835,0,0,0.056172839506172835,0,0)" xlink:href="#aS"/><use transform="matrix(0.056172839506172835,0,0,0.056172839506172835,13.481481481481481,0)" xlink:href="#aT"/><use transform="matrix(0.056172839506172835,0,0,0.056172839506172835,25.78333333333333,0)" xlink:href="#aU"/><use transform="matrix(0.056172839506172835,0,0,0.056172839506172835,38.08518518518518,0)" xlink:href="#aV"/><use transform="matrix(0.056172839506172835,0,0,0.056172839506172835,49.31975308641975,0)" xlink:href="#aW"/></g><g id="p"><use transform="matrix(0.05,0,0,0.05,0,0)" xlink:href="#aI"/><use transform="matrix(0.05,0,0,0.05,12.950000000000001,0)" xlink:href="#aH"/><use transform="matrix(0.05,0,0,0.05,25.900000000000002,0)" xlink:href="#aJ"/></g><g id="q"><use transform="matrix(0.04999999999999999,0,0,0.04999999999999999,0,0)" xlink:href="#ay"/><use transform="matrix(0.04999999999999999,0,0,0.04999999999999999,8.999999999999998,0)" xlink:href="#az"/><use transform="matrix(0.04999999999999999,0,0,0.04999999999999999,18.999999999999996,0)" xlink:href="#aA"/><use transform="matrix(0.04999999999999999,0,0,0.04999999999999999,28.999999999999993,0)" xlink:href="#aB"/><use transform="matrix(0.04999999999999999,0,0,0.04999999999999999,33.99999999999999,0)" xlink:href="#aC"/><use transform="matrix(0.04999999999999999,0,0,0.04999999999999999,39.94999999999999,0)" xlink:href="#aE"/><use transform="matrix(0.04999999999999999,0,0,0.04999999999999999,49.94999999999999,0)" xlink:href="#aD"/><use transform="matrix(0.04999999999999999,0,0,0.04999999999999999,59.94999999999999,0)" xlink:href="#aB"/><use transform="matrix(0.04999999999999999,0,0,0.04999999999999999,64.94999999999999,0)" xlink:href="#aD"/></g><path d="M30 0v-248h187v28H63v79h144v27H63v87h162V0H30" id="aX"/><path d="M141 0L90-78 38 0H4l68-98-65-92h35l48 74 47-74h35l-64 92 68 98h-35" id="aY"/><path d="M115-194c55 1 70 41 70 98S169 2 115 4C84 4 66-9 55-30l1 105H24l-1-265h31l2 30c10-21 28-34 59-34zm-8 174c40 0 45-34 45-75s-6-73-45-74c-42 0-51 32-51 76 0 43 10 73 51 73" id="aZ"/><path d="M233-177c-1 41-23 64-60 70L243 0h-38l-65-103H63V0H30v-248c88 3 205-21 203 71zM63-129c60-2 137 13 137-47 0-61-80-42-137-45v92" id="ba"/><path d="M84 4C-5 8 30-112 23-190h32v120c0 31 7 50 39 49 72-2 45-101 50-169h31l1 190h-30c-1-10 1-25-2-33-11 22-28 36-60 37" id="bb"/><g id="r"><use transform="matrix(0.05,0,0,0.05,0,0)" xlink:href="#aX"/><use transform="matrix(0.05,0,0,0.05,12,0)" xlink:href="#aY"/><use transform="matrix(0.05,0,0,0.05,21,0)" xlink:href="#aZ"/><use transform="matrix(0.05,0,0,0.05,31,0)" xlink:href="#aL"/><use transform="matrix(0.05,0,0,0.05,36.95,0)" xlink:href="#aA"/><use transform="matrix(0.05,0,0,0.05,46.95,0)" xlink:href="#ay"/><use transform="matrix(0.05,0,0,0.05,55.95,0)" xlink:href="#ay"/><use transform="matrix(0.05,0,0,0.05,64.95,0)" xlink:href="#ba"/><use transform="matrix(0.05,0,0,0.05,77.9,0)" xlink:href="#aK"/><use transform="matrix(0.05,0,0,0.05,87.9,0)" xlink:href="#bb"/><use transform="matrix(0.05,0,0,0.05,97.9,0)" xlink:href="#aB"/><use transform="matrix(0.05,0,0,0.05,102.9,0)" xlink:href="#aA"/></g><g id="s"><use transform="matrix(0.05,0,0,0.05,0,0)" xlink:href="#aI"/><use transform="matrix(0.05,0,0,0.05,12.950000000000001,0)" xlink:href="#aD"/><use transform="matrix(0.05,0,0,0.05,22.950000000000003,0)" xlink:href="#aB"/><use transform="matrix(0.05,0,0,0.05,27.950000000000003,0)" xlink:href="#aD"/></g><path d="M212-179c-10-28-35-45-73-45-59 0-87 40-87 99 0 60 29 101 89 101 43 0 62-24 78-52l27 14C228-24 195 4 139 4 59 4 22-46 18-125c-6-104 99-153 187-111 19 9 31 26 39 46" id="bc"/><g id="t"><use transform="matrix(0.05,0,0,0.05,0,0)" xlink:href="#bc"/><use transform="matrix(0.05,0,0,0.05,12.950000000000001,0)" xlink:href="#aA"/><use transform="matrix(0.05,0,0,0.05,22.950000000000003,0)" xlink:href="#az"/><use transform="matrix(0.05,0,0,0.05,32.95,0)" xlink:href="#aB"/><use transform="matrix(0.05,0,0,0.05,37.95,0)" xlink:href="#aA"/><use transform="matrix(0.05,0,0,0.05,47.95,0)" xlink:href="#aL"/></g><path d="M27 0v-27h64v-190l-56 39v-29l58-41h29v221h61V0H27" id="bd"/><use transform="matrix(0.05,0,0,0.05,0,0)" xlink:href="#bd" id="u"/><path d="M205 0l-28-72H64L36 0H1l101-248h38L239 0h-34zm-38-99l-47-123c-12 45-31 82-46 123h93" id="be"/><g id="v"><use transform="matrix(0.05,0,0,0.05,0,0)" xlink:href="#be"/><use transform="matrix(0.05,0,0,0.05,12,0)" xlink:href="#aI"/></g><g id="w"><use transform="matrix(0.05,0,0,0.05,0,0)" xlink:href="#aI"/><use transform="matrix(0.05,0,0,0.05,12.950000000000001,0)" xlink:href="#aJ"/></g><path fill="#333" d="M240-174c0 40-23 61-54 70L253 0h-59l-57-94H76V0H24v-248c93 4 217-23 216 74zM76-134c48-2 112 12 112-38 0-48-66-32-112-35v73" id="bf"/><path fill="#333" d="M185-48c-13 30-37 53-82 52C43 2 14-33 14-96s30-98 90-98c62 0 83 45 84 108H66c0 31 8 55 39 56 18 0 30-7 34-22zm-45-69c5-46-57-63-70-21-2 6-4 13-4 21h74" id="bg"/><path fill="#333" d="M195-6C206 82 75 100 31 46c-4-6-6-13-8-21l49-6c3 16 16 24 34 25 40 0 42-37 40-79-11 22-30 35-61 35-53 0-70-43-70-97 0-56 18-96 73-97 30 0 46 14 59 34l2-30h47zm-90-29c32 0 41-27 41-63 0-35-9-62-40-62-32 0-39 29-40 63 0 36 9 62 39 62" id="bh"/><path fill="#333" d="M25-224v-37h50v37H25zM25 0v-190h50V0H25" id="bi"/><path fill="#333" d="M110-194c64 0 96 36 96 99 0 64-35 99-97 99-61 0-95-36-95-99 0-62 34-99 96-99zm-1 164c35 0 45-28 45-65 0-40-10-65-43-65-34 0-45 26-45 65 0 36 10 65 43 65" id="bj"/><path fill="#333" d="M135-194c87-1 58 113 63 194h-50c-7-57 23-157-34-157-59 0-34 97-39 157H25l-1-190h47c2 12-1 28 3 38 12-26 28-41 61-42" id="bk"/><g id="x"><use transform="matrix(0.06172839506172839,0,0,0.06172839506172839,0,0)" xlink:href="#bf"/><use transform="matrix(0.06172839506172839,0,0,0.06172839506172839,15.987654320987653,0)" xlink:href="#bg"/><use transform="matrix(0.06172839506172839,0,0,0.06172839506172839,28.333333333333332,0)" xlink:href="#bh"/><use transform="matrix(0.06172839506172839,0,0,0.06172839506172839,41.85185185185185,0)" xlink:href="#bi"/><use transform="matrix(0.06172839506172839,0,0,0.06172839506172839,48.02469135802469,0)" xlink:href="#bj"/><use transform="matrix(0.06172839506172839,0,0,0.06172839506172839,61.54320987654321,0)" xlink:href="#bk"/></g><path fill="#333" d="M23 0v-37h61v-169l-59 37v-38l62-41h46v211h57V0H23" id="bl"/><use transform="matrix(0.06172839506172839,0,0,0.06172839506172839,0,0)" xlink:href="#bl" id="y"/><path d="M24 0v-261h32V0H24" id="bm"/><g id="z"><use transform="matrix(0.05,0,0,0.05,0,0)" xlink:href="#aG"/><use transform="matrix(0.05,0,0,0.05,11.65,0)" xlink:href="#aN"/><use transform="matrix(0.05,0,0,0.05,15.600000000000001,0)" xlink:href="#aL"/><use transform="matrix(0.05,0,0,0.05,21.55,0)" xlink:href="#aB"/><use transform="matrix(0.05,0,0,0.05,26.55,0)" xlink:href="#bb"/><use transform="matrix(0.05,0,0,0.05,36.55,0)" xlink:href="#aD"/><use transform="matrix(0.05,0,0,0.05,46.55,0)" xlink:href="#bm"/></g><path d="M240 0l2-218c-23 76-54 145-80 218h-23L58-218 59 0H30v-248h44l77 211c21-75 51-140 76-211h43V0h-30" id="bn"/><g id="A"><use transform="matrix(0.05,0,0,0.05,0,0)" xlink:href="#bn"/><use transform="matrix(0.05,0,0,0.05,14.950000000000001,0)" xlink:href="#aD"/><use transform="matrix(0.05,0,0,0.05,24.950000000000003,0)" xlink:href="#aP"/><use transform="matrix(0.05,0,0,0.05,33.95,0)" xlink:href="#aO"/><use transform="matrix(0.05,0,0,0.05,43.95,0)" xlink:href="#aN"/><use transform="matrix(0.05,0,0,0.05,47.900000000000006,0)" xlink:href="#az"/><use transform="matrix(0.05,0,0,0.05,57.900000000000006,0)" xlink:href="#aA"/></g><path d="M33 0v-248h34V0H33" id="bo"/><g id="B"><use transform="matrix(0.05,0,0,0.05,0,0)" xlink:href="#bo"/><use transform="matrix(0.05,0,0,0.05,5,0)" xlink:href="#az"/><use transform="matrix(0.05,0,0,0.05,15,0)" xlink:href="#aB"/><use transform="matrix(0.05,0,0,0.05,20,0)" xlink:href="#aA"/><use transform="matrix(0.05,0,0,0.05,30,0)" xlink:href="#aL"/><use transform="matrix(0.05,0,0,0.05,35.95,0)" xlink:href="#az"/><use transform="matrix(0.05,0,0,0.05,45.95,0)" xlink:href="#aD"/><use transform="matrix(0.05,0,0,0.05,55.95,0)" xlink:href="#bm"/></g><path d="M30 0v-248h33v221h125V0H30" id="bp"/><path d="M160-131c35 5 61 23 61 61C221 17 115-2 30 0v-248c76 3 177-17 177 60 0 33-19 50-47 57zm-97-11c50-1 110 9 110-42 0-47-63-36-110-37v79zm0 115c55-2 124 14 124-45 0-56-70-42-124-44v89" id="bq"/><g id="C"><use transform="matrix(0.05,0,0,0.05,0,0)" xlink:href="#bp"/><use transform="matrix(0.05,0,0,0.05,10,0)" xlink:href="#bq"/></g><g id="D"><use transform="matrix(0.05,0,0,0.05,0,0)" xlink:href="#aX"/><use transform="matrix(0.05,0,0,0.05,12,0)" xlink:href="#aY"/><use transform="matrix(0.05,0,0,0.05,21,0)" xlink:href="#aB"/><use transform="matrix(0.05,0,0,0.05,26,0)" xlink:href="#aA"/><use transform="matrix(0.05,0,0,0.05,36,0)" xlink:href="#aL"/><use transform="matrix(0.05,0,0,0.05,41.95,0)" xlink:href="#az"/><use transform="matrix(0.05,0,0,0.05,51.95,0)" xlink:href="#aD"/><use transform="matrix(0.05,0,0,0.05,61.95,0)" xlink:href="#bm"/></g><path d="M63-220v92h138v28H63V0H30v-248h175v28H63" id="br"/><path d="M206 0h-36l-40-164L89 0H53L-1-190h32L70-26l43-164h34l41 164 42-164h31" id="bs"/><g id="E"><use transform="matrix(0.05,0,0,0.05,0,0)" xlink:href="#br"/><use transform="matrix(0.05,0,0,0.05,10.950000000000001,0)" xlink:href="#aN"/><use transform="matrix(0.05,0,0,0.05,14.9,0)" xlink:href="#aL"/><use transform="matrix(0.05,0,0,0.05,20.85,0)" xlink:href="#aA"/><use transform="matrix(0.05,0,0,0.05,30.85,0)" xlink:href="#bs"/><use transform="matrix(0.05,0,0,0.05,43.800000000000004,0)" xlink:href="#aD"/><use transform="matrix(0.05,0,0,0.05,53.800000000000004,0)" xlink:href="#bm"/><use transform="matrix(0.05,0,0,0.05,57.75,0)" xlink:href="#bm"/></g><g id="F"><use transform="matrix(0.05,0,0,0.05,0,0)" xlink:href="#br"/><use transform="matrix(0.05,0,0,0.05,10.950000000000001,0)" xlink:href="#aN"/><use transform="matrix(0.05,0,0,0.05,14.9,0)" xlink:href="#aL"/><use transform="matrix(0.05,0,0,0.05,20.85,0)" xlink:href="#aA"/><use transform="matrix(0.05,0,0,0.05,30.85,0)" xlink:href="#bs"/><use transform="matrix(0.05,0,0,0.05,43.800000000000004,0)" xlink:href="#aD"/><use transform="matrix(0.05,0,0,0.05,53.800000000000004,0)" xlink:href="#bm"/><use transform="matrix(0.05,0,0,0.05,57.75,0)" xlink:href="#bm"/></g><g id="G"><use transform="matrix(0.05,0,0,0.05,0,0)" xlink:href="#aG"/><use transform="matrix(0.05,0,0,0.05,11.65,0)" xlink:href="#aN"/><use transform="matrix(0.05,0,0,0.05,15.600000000000001,0)" xlink:href="#aL"/><use transform="matrix(0.05,0,0,0.05,21.55,0)" xlink:href="#aB"/><use transform="matrix(0.05,0,0,0.05,26.55,0)" xlink:href="#bb"/><use transform="matrix(0.05,0,0,0.05,36.55,0)" xlink:href="#aD"/><use transform="matrix(0.05,0,0,0.05,46.55,0)" xlink:href="#bm"/></g><path d="M143 0L79-87 56-68V0H24v-261h32v163l83-92h37l-77 82L181 0h-38" id="bt"/><g id="H"><use transform="matrix(0.05,0,0,0.05,0,0)" xlink:href="#aH"/><use transform="matrix(0.05,0,0,0.05,12.950000000000001,0)" xlink:href="#aA"/><use transform="matrix(0.05,0,0,0.05,22.950000000000003,0)" xlink:href="#aB"/><use transform="matrix(0.05,0,0,0.05,27.950000000000003,0)" xlink:href="#bs"/><use transform="matrix(0.05,0,0,0.05,40.900000000000006,0)" xlink:href="#aK"/><use transform="matrix(0.05,0,0,0.05,50.900000000000006,0)" xlink:href="#aL"/><use transform="matrix(0.05,0,0,0.05,56.85,0)" xlink:href="#bt"/></g><path d="M143 4C61 4 22-44 18-125c-5-107 100-154 193-111 17 8 29 25 37 43l-32 9c-13-25-37-40-76-40-61 0-88 39-88 99 0 61 29 100 91 101 35 0 62-11 79-27v-45h-74v-28h105v86C228-13 192 4 143 4" id="bu"/><path d="M179-190L93 31C79 59 56 82 12 73V49c39 6 53-20 64-50L1-190h34L92-34l54-156h33" id="bv"/><g id="I"><use transform="matrix(0.05,0,0,0.05,0,0)" xlink:href="#bu"/><use transform="matrix(0.05,0,0,0.05,14,0)" xlink:href="#aD"/><use transform="matrix(0.05,0,0,0.05,24,0)" xlink:href="#aB"/><use transform="matrix(0.05,0,0,0.05,29,0)" xlink:href="#aA"/><use transform="matrix(0.05,0,0,0.05,39,0)" xlink:href="#bs"/><use transform="matrix(0.05,0,0,0.05,51.95,0)" xlink:href="#aD"/><use transform="matrix(0.05,0,0,0.05,61.95,0)" xlink:href="#bv"/><use transform="matrix(0.05,0,0,0.05,70.95,0)" xlink:href="#ay"/></g><path fill="#fff" d="M230 0l2-204L168 0h-37L68-204 70 0H24v-248h70l56 185 57-185h69V0h-46" id="bw"/><use transform="matrix(0.07407407407407407,0,0,0.07407407407407407,0,0)" xlink:href="#bw" id="J"/><path fill="#fff" d="M24 0v-248h52v208h133V0H24" id="bx"/><use transform="matrix(0.07407407407407407,0,0,0.07407407407407407,0,0)" xlink:href="#bx" id="K"/><path fill="#fff" d="M195 0l-88-114-31 24V0H24v-248h52v113l112-113h60L142-143 257 0h-62" id="by"/><use transform="matrix(0.07407407407407407,0,0,0.07407407407407407,0,0)" xlink:href="#by" id="L"/><path fill="#fff" d="M176-78C186 10 51 31 16-35c-5-9-9-19-11-32l52-8c4 21 12 37 35 38 23 0 32-16 32-40v-130H75v-41h101v170" id="bz"/><use transform="matrix(0.07407407407407407,0,0,0.07407407407407407,0,0)" xlink:href="#bz" id="M"/><path fill="#fff" d="M186 0v-106H76V0H24v-248h52v99h110v-99h50V0h-50" id="bA"/><use transform="matrix(0.07407407407407407,0,0,0.07407407407407407,0,0)" xlink:href="#bA" id="N"/><path fill="#fff" d="M24 0v-248h52V0H24" id="bB"/><use transform="matrix(0.07407407407407407,0,0,0.07407407407407407,0,0)" xlink:href="#bB" id="O"/><path fill="#fff" d="M182-130c37 4 62 22 62 59C244 23 116-4 24 0v-248c84 5 203-23 205 63 0 31-19 50-47 55zM76-148c40-3 101 13 101-30 0-44-60-28-101-31v61zm0 110c48-3 116 14 116-37 0-48-69-32-116-35v72" id="bC"/><use transform="matrix(0.07407407407407407,0,0,0.07407407407407407,0,0)" xlink:href="#bC" id="P"/><path fill="#fff" d="M199 0l-22-63H83L61 0H9l90-248h61L250 0h-51zm-33-102l-36-108c-10 38-24 72-36 108h72" id="bD"/><use transform="matrix(0.07407407407407407,0,0,0.07407407407407407,0,0)" xlink:href="#bD" id="Q"/><path fill="#fff" d="M67-125c0 53 21 87 73 88 37 1 54-22 65-47l45 17C233-25 199 4 140 4 58 4 20-42 15-125 8-235 124-281 211-232c18 10 29 29 36 50l-46 12c-8-25-30-41-62-41-52 0-71 34-72 86" id="bE"/><use transform="matrix(0.07407407407407407,0,0,0.07407407407407407,0,0)" xlink:href="#bE" id="R"/><path fill="#fff" d="M76-208v77h127v40H76V0H24v-248h183v40H76" id="bF"/><use transform="matrix(0.07407407407407407,0,0,0.07407407407407407,0,0)" xlink:href="#bF" id="S"/><g id="T"><use transform="matrix(0.05,0,0,0.05,0,0)" xlink:href="#bo"/><use transform="matrix(0.05,0,0,0.05,5,0)" xlink:href="#az"/><use transform="matrix(0.05,0,0,0.05,15,0)" xlink:href="#aB"/><use transform="matrix(0.05,0,0,0.05,20,0)" xlink:href="#aA"/><use transform="matrix(0.05,0,0,0.05,30,0)" xlink:href="#aL"/><use transform="matrix(0.05,0,0,0.05,35.95,0)" xlink:href="#az"/><use transform="matrix(0.05,0,0,0.05,45.95,0)" xlink:href="#aA"/><use transform="matrix(0.05,0,0,0.05,55.95,0)" xlink:href="#aB"/></g><path fill="#fff" d="M192-256c86 0 138 45 138 129 0 61-26 109-84 114-27 2-36-18-34-42-11 22-31 42-62 42-41 0-58-28-58-68 0-58 29-104 88-107 26-1 39 14 48 30l7-26h27L235-53c-1 11 6 15 14 16 38-7 54-45 54-90 0-68-42-104-111-104-92 0-143 58-143 150C49-9 89 32 162 32c43 0 75-12 103-28l11 22c-32 17-67 31-116 31C71 57 21 7 21-81c0-109 65-175 171-175zM156-38c42-5 58-44 60-89 1-24-14-38-37-38-41 0-55 40-57 84-1 25 9 46 34 43" id="bG"/><use transform="matrix(0.07407407407407407,0,0,0.07407407407407407,0,0)" xlink:href="#bG" id="U"/><path fill="#fff" d="M67-125c0 54 23 88 75 88 28 0 53-7 68-21v-34h-60v-39h108v91C232-14 192 4 140 4 58 4 20-42 15-125 8-236 126-280 215-234c19 10 29 26 37 47l-47 15c-11-23-29-39-63-39-53 1-75 33-75 86" id="bH"/><use transform="matrix(0.07407407407407407,0,0,0.07407407407407407,0,0)" xlink:href="#bH" id="V"/><g id="W"><use transform="matrix(0.05,0,0,0.05,0,0)" xlink:href="#aQ"/><use transform="matrix(0.05,0,0,0.05,12,0)" xlink:href="#bo"/><use transform="matrix(0.05,0,0,0.05,17,0)" xlink:href="#aQ"/></g><path fill="#fff" d="M24-248c120-7 223 5 221 122C244-46 201 0 124 0H24v-248zM76-40c74 7 117-18 117-86 0-67-45-88-117-82v168" id="bI"/><use transform="matrix(0.07407407407407407,0,0,0.07407407407407407,0,0)" xlink:href="#bI" id="X"/><path fill="#fff" d="M24 0v-248h195v40H76v63h132v40H76v65h150V0H24" id="bJ"/><use transform="matrix(0.07407407407407407,0,0,0.07407407407407407,0,0)" xlink:href="#bJ" id="Y"/><path d="M67-125c0 54 23 88 75 88 28 0 53-7 68-21v-34h-60v-39h108v91C232-14 192 4 140 4 58 4 20-42 15-125 8-236 126-280 215-234c19 10 29 26 37 47l-47 15c-11-23-29-39-63-39-53 1-75 33-75 86" id="bK"/><path d="M231 0h-52l-39-155L100 0H48L-1-190h46L77-45c9-52 24-97 36-145h53l37 145 32-145h46" id="bL"/><path d="M123 10C108 53 80 86 19 72V37c35 8 53-11 59-39L3-190h52l48 148c12-52 28-100 44-148h51" id="bM"/><g id="Z"><use transform="matrix(0.05,0,0,0.05,0,0)" xlink:href="#bK"/><use transform="matrix(0.05,0,0,0.05,14,0)" xlink:href="#at"/><use transform="matrix(0.05,0,0,0.05,24,0)" xlink:href="#ax"/><use transform="matrix(0.05,0,0,0.05,29.950000000000003,0)" xlink:href="#aW"/><use transform="matrix(0.05,0,0,0.05,39.95,0)" xlink:href="#bL"/><use transform="matrix(0.05,0,0,0.05,53.95,0)" xlink:href="#at"/><use transform="matrix(0.05,0,0,0.05,63.95,0)" xlink:href="#bM"/></g><path d="M85 4C-2 5 27-109 22-190h50c7 57-23 150 33 157 60-5 35-97 40-157h50l1 190h-47c-2-12 1-28-3-38-12 25-28 42-61 42" id="bN"/><path d="M135-194c52 0 70 43 70 98 0 56-19 99-73 100-30 1-46-15-58-35L72 0H24l1-261h50v104c11-23 29-37 60-37zM114-30c31 0 40-27 40-66 0-37-7-63-39-63s-41 28-41 65c0 36 8 64 40 64" id="bO"/><g id="aa"><use transform="matrix(0.05,0,0,0.05,0,0)" xlink:href="#aS"/><use transform="matrix(0.05,0,0,0.05,12,0)" xlink:href="#bN"/><use transform="matrix(0.05,0,0,0.05,22.950000000000003,0)" xlink:href="#bO"/><use transform="matrix(0.05,0,0,0.05,33.900000000000006,0)" xlink:href="#au"/><use transform="matrix(0.05,0,0,0.05,44.85000000000001,0)" xlink:href="#aW"/><use transform="matrix(0.05,0,0,0.05,54.85,0)" xlink:href="#ax"/></g><path d="M240-174c0 40-23 61-54 70L253 0h-59l-57-94H76V0H24v-248c93 4 217-23 216 74zM76-134c48-2 112 12 112-38 0-48-66-32-112-35v73" id="bP"/><g id="ab"><use transform="matrix(0.05,0,0,0.05,0,0)" xlink:href="#bP"/><use transform="matrix(0.05,0,0,0.05,12.950000000000001,0)" xlink:href="#aU"/><use transform="matrix(0.05,0,0,0.05,23.900000000000002,0)" xlink:href="#bN"/><use transform="matrix(0.05,0,0,0.05,34.85,0)" xlink:href="#ax"/><use transform="matrix(0.05,0,0,0.05,40.800000000000004,0)" xlink:href="#aW"/></g><path d="M25 0v-261h50V0H25" id="bQ"/><g id="ac"><use transform="matrix(0.05,0,0,0.05,0,0)" xlink:href="#ar"/><use transform="matrix(0.05,0,0,0.05,9.600000000000001,0)" xlink:href="#at"/><use transform="matrix(0.05,0,0,0.05,19.6,0)" xlink:href="#bO"/><use transform="matrix(0.05,0,0,0.05,30.55,0)" xlink:href="#bQ"/><use transform="matrix(0.05,0,0,0.05,35.550000000000004,0)" xlink:href="#aW"/></g><path d="M232-93c-1 65-40 97-104 97C67 4 28-28 28-90v-158h33c8 89-33 224 67 224 102 0 64-133 71-224h33v155" id="bR"/><path d="M33-261c38 41 65 92 65 168S71 34 33 75H2C39 34 66-17 66-93S39-220 2-261h31" id="bS"/><g id="ad"><use transform="matrix(0.05,0,0,0.05,0,0)" xlink:href="#bR"/><use transform="matrix(0.05,0,0,0.05,12.950000000000001,0)" xlink:href="#aI"/><use transform="matrix(0.05,0,0,0.05,25.900000000000002,0)" xlink:href="#ba"/><use transform="matrix(0.05,0,0,0.05,38.85,0)" xlink:href="#bS"/></g><g id="ae"><use transform="matrix(0.05,0,0,0.05,0,0)" xlink:href="#aJ"/><use transform="matrix(0.05,0,0,0.05,12,0)" xlink:href="#aZ"/><use transform="matrix(0.05,0,0,0.05,22,0)" xlink:href="#aK"/><use transform="matrix(0.05,0,0,0.05,32,0)" xlink:href="#bt"/><use transform="matrix(0.05,0,0,0.05,41,0)" xlink:href="#aA"/></g><path d="M127-220V0H93v-220H8v-28h204v28h-85" id="bT"/><g id="af"><use transform="matrix(0.05,0,0,0.05,0,0)" xlink:href="#aG"/><use transform="matrix(0.05,0,0,0.05,12,0)" xlink:href="#aH"/><use transform="matrix(0.05,0,0,0.05,24.950000000000003,0)" xlink:href="#aX"/><use transform="matrix(0.05,0,0,0.05,36.95,0)" xlink:href="#bT"/></g><g id="ag"><use transform="matrix(0.05,0,0,0.05,0,0)" xlink:href="#bc"/><use transform="matrix(0.05,0,0,0.05,12.950000000000001,0)" xlink:href="#bo"/><use transform="matrix(0.05,0,0,0.05,17.950000000000003,0)" xlink:href="#aI"/><use transform="matrix(0.05,0,0,0.05,30.900000000000006,0)" xlink:href="#ba"/></g><path d="M18-27v-27l151-64-151-65v-27l175 74v36" id="bU"/><g id="ah"><use transform="matrix(0.05,0,0,0.05,0,0)" xlink:href="#aC"/><use transform="matrix(0.05,0,0,0.05,5.95,0)" xlink:href="#bU"/></g><g id="ai"><use transform="matrix(0.05,0,0,0.05,0,0)" xlink:href="#aH"/><use transform="matrix(0.05,0,0,0.05,12.950000000000001,0)" xlink:href="#aG"/><use transform="matrix(0.05,0,0,0.05,23.6,0)" xlink:href="#be"/></g><g id="aj"><use transform="matrix(0.05,0,0,0.05,0,0)" xlink:href="#bo"/><use transform="matrix(0.05,0,0,0.05,5,0)" xlink:href="#bp"/><use transform="matrix(0.05,0,0,0.05,15,0)" xlink:href="#bq"/></g><g id="ak"><use transform="matrix(0.05,0,0,0.05,0,0)" xlink:href="#bo"/><use transform="matrix(0.05,0,0,0.05,5,0)" xlink:href="#aQ"/></g><g id="al"><use transform="matrix(0.05,0,0,0.05,0,0)" xlink:href="#aS"/><use transform="matrix(0.05,0,0,0.05,12,0)" xlink:href="#aT"/><use transform="matrix(0.05,0,0,0.05,22.950000000000003,0)" xlink:href="#aU"/><use transform="matrix(0.05,0,0,0.05,33.900000000000006,0)" xlink:href="#aV"/><use transform="matrix(0.05,0,0,0.05,43.900000000000006,0)" xlink:href="#aW"/></g><g id="am"><use transform="matrix(0.05,0,0,0.05,0,0)" xlink:href="#ar"/><use transform="matrix(0.05,0,0,0.05,9.600000000000001,0)" xlink:href="#at"/><use transform="matrix(0.05,0,0,0.05,19.6,0)" xlink:href="#bO"/><use transform="matrix(0.05,0,0,0.05,30.55,0)" xlink:href="#bQ"/><use transform="matrix(0.05,0,0,0.05,35.550000000000004,0)" xlink:href="#aW"/></g><g id="an"><use transform="matrix(0.05,0,0,0.05,0,0)" xlink:href="#bR"/><use transform="matrix(0.05,0,0,0.05,12.950000000000001,0)" xlink:href="#aI"/><use transform="matrix(0.05,0,0,0.05,25.900000000000002,0)" xlink:href="#ba"/><use transform="matrix(0.05,0,0,0.05,38.85,0)" xlink:href="#bS"/></g><path d="M101-251c68 0 85 55 85 127S166 4 100 4C33 4 14-52 14-124c0-73 17-127 87-127zm-1 229c47 0 54-49 54-102s-4-102-53-102c-51 0-55 48-55 102 0 53 5 102 54 102" id="bV"/><path d="M33 0v-38h34V0H33" id="bW"/><path d="M0 4l72-265h28L28 4H0" id="bX"/><g id="ao"><use transform="matrix(0.05,0,0,0.05,0,0)" xlink:href="#bV"/><use transform="matrix(0.05,0,0,0.05,10,0)" xlink:href="#bW"/><use transform="matrix(0.05,0,0,0.05,15,0)" xlink:href="#bV"/><use transform="matrix(0.05,0,0,0.05,25,0)" xlink:href="#bW"/><use transform="matrix(0.05,0,0,0.05,30,0)" xlink:href="#bV"/><use transform="matrix(0.05,0,0,0.05,40,0)" xlink:href="#bW"/><use transform="matrix(0.05,0,0,0.05,45,0)" xlink:href="#bV"/><use transform="matrix(0.05,0,0,0.05,55,0)" xlink:href="#bX"/><use transform="matrix(0.05,0,0,0.05,60,0)" xlink:href="#bV"/></g><g id="ap"><use transform="matrix(0.04999999999999999,0,0,0.04999999999999999,0,0)" xlink:href="#br"/><use transform="matrix(0.04999999999999999,0,0,0.04999999999999999,10.949999999999998,0)" xlink:href="#aL"/><use transform="matrix(0.04999999999999999,0,0,0.04999999999999999,16.899999999999995,0)" xlink:href="#aK"/><use transform="matrix(0.04999999999999999,0,0,0.04999999999999999,26.899999999999995,0)" xlink:href="#az"/><use transform="matrix(0.04999999999999999,0,0,0.04999999999999999,36.89999999999999,0)" xlink:href="#aB"/><use transform="matrix(0.04999999999999999,0,0,0.04999999999999999,41.89999999999999,0)" xlink:href="#aA"/><use transform="matrix(0.04999999999999999,0,0,0.04999999999999999,51.89999999999999,0)" xlink:href="#az"/><use transform="matrix(0.04999999999999999,0,0,0.04999999999999999,61.899999999999984,0)" xlink:href="#aE"/></g><g id="aq"><use transform="matrix(0.04999999999999999,0,0,0.04999999999999999,0,0)" xlink:href="#bq"/><use transform="matrix(0.04999999999999999,0,0,0.04999999999999999,11.999999999999996,0)" xlink:href="#aD"/><use transform="matrix(0.04999999999999999,0,0,0.04999999999999999,21.999999999999993,0)" xlink:href="#aP"/><use transform="matrix(0.04999999999999999,0,0,0.04999999999999999,30.999999999999993,0)" xlink:href="#bt"/><use transform="matrix(0.04999999999999999,0,0,0.04999999999999999,39.99999999999999,0)" xlink:href="#aA"/><use transform="matrix(0.04999999999999999,0,0,0.04999999999999999,49.99999999999999,0)" xlink:href="#az"/><use transform="matrix(0.04999999999999999,0,0,0.04999999999999999,60,0)" xlink:href="#aE"/></g></defs></g></svg>